M48
;GenerationSoftware,Autodesk,EAGLE,9.6.0*%
;CreationDate,2026-01-13T16:11:03Z*%
FMAT,2
ICI,OFF
METRIC,TZ,000.000
T3C0.350
T2C0.813
T1C1.016
%
G90
M71
T1
X8206Y12533
X66641Y-21
X32468Y12922
X35008Y12922
X45470Y117
X42930Y117
X40390Y117
X37850Y117
X35310Y117
X32770Y117
X30230Y117
X27690Y117
X66641Y2519
X66641Y5059
X66641Y7599
X8198Y-1721
X8198Y819
X8206Y9993
T2
X13767Y13523
X21387Y13523
X52892Y-1771
X60512Y-1771
X35890Y8550
X43510Y8550
X52676Y3811
X60296Y3811
X52758Y9421
X60378Y9421
X13264Y1638
X20884Y1638
T3
X71236Y-5485
X71576Y15888
X4947Y-4908
X4831Y16186
M30