G04 EAGLE Gerber RS-274X export*
G75*
%MOMM*%
%FSLAX34Y34*%
%LPD*%
%INTop Copper*%
%IPPOS*%
%AMOC8*
5,1,8,0,0,1.08239X$1,22.5*%
G01*
%ADD10C,1.524000*%
%ADD11P,1.429621X8X22.500000*%


D10*
X454703Y8785D02*
X454703Y-6455D01*
X429303Y-6455D02*
X429303Y8785D01*
X403903Y8785D02*
X403903Y-6455D01*
X378503Y-6455D02*
X378503Y8785D01*
X353103Y8785D02*
X353103Y-6455D01*
X327703Y-6455D02*
X327703Y8785D01*
X302303Y8785D02*
X302303Y-6455D01*
X276903Y-6455D02*
X276903Y8785D01*
D11*
X526758Y38111D03*
X602958Y38111D03*
X527576Y94214D03*
X603776Y94214D03*
X132642Y16381D03*
X208842Y16381D03*
X137671Y135230D03*
X213871Y135230D03*
X528919Y-17714D03*
X605119Y-17714D03*
D10*
X350084Y121600D02*
X350084Y136840D01*
X324684Y136840D02*
X324684Y121600D01*
D11*
X358895Y85502D03*
X435095Y85502D03*
D10*
X658790Y-214D02*
X674030Y-214D01*
X674030Y25186D02*
X658790Y25186D01*
X658790Y50586D02*
X674030Y50586D01*
X674030Y75986D02*
X658790Y75986D01*
X89600Y-17207D02*
X74360Y-17207D01*
X74360Y8193D02*
X89600Y8193D01*
X89680Y99935D02*
X74440Y99935D01*
X74440Y125335D02*
X89680Y125335D01*
M02*
