G04 EAGLE Gerber RS-274X export*
G75*
%MOMM*%
%FSLAX34Y34*%
%LPD*%
%IN*%
%IPPOS*%
%AMOC8*
5,1,8,0,0,1.08239X$1,22.5*%
G01*
%ADD10C,0.254000*%


D10*
X28518Y-69023D02*
X734670Y-71193D01*
X733256Y176089D01*
X29963Y178537D01*
X28518Y-69023D01*
X50060Y161684D02*
X49993Y161346D01*
X49861Y161027D01*
X49670Y160741D01*
X49426Y160497D01*
X49139Y160305D01*
X48821Y160174D01*
X48483Y160106D01*
X48138Y160106D01*
X47800Y160174D01*
X47481Y160305D01*
X47195Y160497D01*
X46951Y160741D01*
X46759Y161027D01*
X46628Y161346D01*
X46560Y161684D01*
X46560Y162029D01*
X46628Y162367D01*
X46759Y162685D01*
X46951Y162972D01*
X47195Y163216D01*
X47481Y163407D01*
X47800Y163539D01*
X48138Y163606D01*
X48483Y163606D01*
X48821Y163539D01*
X49139Y163407D01*
X49426Y163216D01*
X49670Y162972D01*
X49861Y162685D01*
X49993Y162367D01*
X50060Y162029D01*
X50060Y161684D01*
X51224Y-49255D02*
X51157Y-49593D01*
X51025Y-49912D01*
X50834Y-50198D01*
X50590Y-50442D01*
X50303Y-50634D01*
X49985Y-50766D01*
X49647Y-50833D01*
X49302Y-50833D01*
X48964Y-50766D01*
X48645Y-50634D01*
X48359Y-50442D01*
X48115Y-50198D01*
X47924Y-49912D01*
X47792Y-49593D01*
X47724Y-49255D01*
X47724Y-48910D01*
X47792Y-48572D01*
X47924Y-48254D01*
X48115Y-47967D01*
X48359Y-47723D01*
X48645Y-47532D01*
X48964Y-47400D01*
X49302Y-47333D01*
X49647Y-47333D01*
X49985Y-47400D01*
X50303Y-47532D01*
X50590Y-47723D01*
X50834Y-47967D01*
X51025Y-48254D01*
X51157Y-48572D01*
X51224Y-48910D01*
X51224Y-49255D01*
X717509Y158708D02*
X717442Y158370D01*
X717310Y158052D01*
X717119Y157765D01*
X716875Y157521D01*
X716588Y157330D01*
X716270Y157198D01*
X715932Y157131D01*
X715587Y157131D01*
X715249Y157198D01*
X714930Y157330D01*
X714644Y157521D01*
X714400Y157765D01*
X714209Y158052D01*
X714077Y158370D01*
X714009Y158708D01*
X714009Y159053D01*
X714077Y159391D01*
X714209Y159709D01*
X714400Y159996D01*
X714644Y160240D01*
X714930Y160431D01*
X715249Y160563D01*
X715587Y160631D01*
X715932Y160631D01*
X716270Y160563D01*
X716588Y160431D01*
X716875Y160240D01*
X717119Y159996D01*
X717310Y159709D01*
X717442Y159391D01*
X717509Y159053D01*
X717509Y158708D01*
X714114Y-55026D02*
X714047Y-55364D01*
X713915Y-55683D01*
X713724Y-55969D01*
X713480Y-56213D01*
X713193Y-56405D01*
X712875Y-56536D01*
X712537Y-56604D01*
X712192Y-56604D01*
X711854Y-56536D01*
X711535Y-56405D01*
X711249Y-56213D01*
X711005Y-55969D01*
X710814Y-55683D01*
X710682Y-55364D01*
X710614Y-55026D01*
X710614Y-54681D01*
X710682Y-54343D01*
X710814Y-54025D01*
X711005Y-53738D01*
X711249Y-53494D01*
X711535Y-53303D01*
X711854Y-53171D01*
X712192Y-53104D01*
X712537Y-53104D01*
X712875Y-53171D01*
X713193Y-53303D01*
X713480Y-53494D01*
X713724Y-53738D01*
X713915Y-54025D01*
X714047Y-54343D01*
X714114Y-54681D01*
X714114Y-55026D01*
M02*
