G04 EAGLE Gerber RS-274X export*
G75*
%MOMM*%
%FSLAX34Y34*%
%LPD*%
%INSilkscreen Top*%
%IPPOS*%
%AMOC8*
5,1,8,0,0,1.08239X$1,22.5*%
G01*
%ADD10C,0.152400*%
%ADD11C,0.127000*%


D10*
X308653Y-11535D02*
X295953Y-11535D01*
X289603Y-5185D01*
X289603Y7515D01*
X295953Y13865D01*
X334053Y-11535D02*
X340403Y-5185D01*
X334053Y-11535D02*
X321353Y-11535D01*
X315003Y-5185D01*
X315003Y7515D01*
X321353Y13865D01*
X334053Y13865D01*
X340403Y7515D01*
X315003Y-5185D02*
X308653Y-11535D01*
X315003Y7515D02*
X308653Y13865D01*
X295953Y13865D01*
X372153Y-11535D02*
X384853Y-11535D01*
X372153Y-11535D02*
X365803Y-5185D01*
X365803Y7515D01*
X372153Y13865D01*
X365803Y-5185D02*
X359453Y-11535D01*
X346753Y-11535D01*
X340403Y-5185D01*
X340403Y7515D01*
X346753Y13865D01*
X359453Y13865D01*
X365803Y7515D01*
X410253Y-11535D02*
X416603Y-5185D01*
X410253Y-11535D02*
X397553Y-11535D01*
X391203Y-5185D01*
X391203Y7515D01*
X397553Y13865D01*
X410253Y13865D01*
X416603Y7515D01*
X391203Y-5185D02*
X384853Y-11535D01*
X391203Y7515D02*
X384853Y13865D01*
X372153Y13865D01*
X448353Y-11535D02*
X461053Y-11535D01*
X448353Y-11535D02*
X442003Y-5185D01*
X442003Y7515D01*
X448353Y13865D01*
X442003Y-5185D02*
X435653Y-11535D01*
X422953Y-11535D01*
X416603Y-5185D01*
X416603Y7515D01*
X422953Y13865D01*
X435653Y13865D01*
X442003Y7515D01*
X467403Y7515D02*
X467403Y-5185D01*
X461053Y-11535D01*
X467403Y7515D02*
X461053Y13865D01*
X448353Y13865D01*
X283253Y-11535D02*
X270553Y-11535D01*
X264203Y-5185D01*
X264203Y7515D01*
X270553Y13865D01*
X289603Y-5185D02*
X283253Y-11535D01*
X289603Y7515D02*
X283253Y13865D01*
X270553Y13865D01*
D11*
X353193Y-29188D02*
X355733Y-29188D01*
X353193Y-29188D02*
X353093Y-29186D01*
X352994Y-29180D01*
X352894Y-29170D01*
X352796Y-29157D01*
X352697Y-29139D01*
X352600Y-29118D01*
X352504Y-29093D01*
X352408Y-29064D01*
X352314Y-29031D01*
X352221Y-28995D01*
X352130Y-28955D01*
X352040Y-28911D01*
X351952Y-28864D01*
X351866Y-28814D01*
X351782Y-28760D01*
X351700Y-28703D01*
X351621Y-28643D01*
X351543Y-28579D01*
X351469Y-28513D01*
X351397Y-28444D01*
X351328Y-28372D01*
X351262Y-28298D01*
X351198Y-28220D01*
X351138Y-28141D01*
X351081Y-28059D01*
X351027Y-27975D01*
X350977Y-27889D01*
X350930Y-27801D01*
X350886Y-27711D01*
X350846Y-27620D01*
X350810Y-27527D01*
X350777Y-27433D01*
X350748Y-27337D01*
X350723Y-27241D01*
X350702Y-27144D01*
X350684Y-27045D01*
X350671Y-26947D01*
X350661Y-26847D01*
X350655Y-26748D01*
X350653Y-26648D01*
X350653Y-20298D01*
X350655Y-20198D01*
X350661Y-20099D01*
X350671Y-19999D01*
X350684Y-19901D01*
X350702Y-19802D01*
X350723Y-19705D01*
X350748Y-19609D01*
X350777Y-19513D01*
X350810Y-19419D01*
X350846Y-19326D01*
X350886Y-19235D01*
X350930Y-19145D01*
X350977Y-19057D01*
X351027Y-18971D01*
X351081Y-18887D01*
X351138Y-18805D01*
X351198Y-18726D01*
X351262Y-18648D01*
X351328Y-18574D01*
X351397Y-18502D01*
X351469Y-18433D01*
X351543Y-18367D01*
X351621Y-18303D01*
X351700Y-18243D01*
X351782Y-18186D01*
X351866Y-18132D01*
X351952Y-18082D01*
X352040Y-18035D01*
X352130Y-17991D01*
X352221Y-17951D01*
X352314Y-17915D01*
X352408Y-17882D01*
X352504Y-17853D01*
X352600Y-17828D01*
X352697Y-17807D01*
X352796Y-17789D01*
X352894Y-17776D01*
X352994Y-17766D01*
X353093Y-17760D01*
X353193Y-17758D01*
X355733Y-17758D01*
X360215Y-20933D02*
X360215Y-26013D01*
X360215Y-20933D02*
X360217Y-20822D01*
X360223Y-20712D01*
X360232Y-20601D01*
X360246Y-20491D01*
X360263Y-20382D01*
X360284Y-20273D01*
X360309Y-20165D01*
X360338Y-20058D01*
X360370Y-19952D01*
X360406Y-19847D01*
X360446Y-19744D01*
X360489Y-19642D01*
X360536Y-19541D01*
X360587Y-19442D01*
X360640Y-19346D01*
X360697Y-19251D01*
X360758Y-19158D01*
X360821Y-19067D01*
X360888Y-18978D01*
X360958Y-18892D01*
X361031Y-18809D01*
X361106Y-18727D01*
X361184Y-18649D01*
X361266Y-18574D01*
X361349Y-18501D01*
X361435Y-18431D01*
X361524Y-18364D01*
X361615Y-18301D01*
X361708Y-18240D01*
X361803Y-18183D01*
X361899Y-18130D01*
X361998Y-18079D01*
X362099Y-18032D01*
X362201Y-17989D01*
X362304Y-17949D01*
X362409Y-17913D01*
X362515Y-17881D01*
X362622Y-17852D01*
X362730Y-17827D01*
X362839Y-17806D01*
X362948Y-17789D01*
X363058Y-17775D01*
X363169Y-17766D01*
X363279Y-17760D01*
X363390Y-17758D01*
X363501Y-17760D01*
X363611Y-17766D01*
X363722Y-17775D01*
X363832Y-17789D01*
X363941Y-17806D01*
X364050Y-17827D01*
X364158Y-17852D01*
X364265Y-17881D01*
X364371Y-17913D01*
X364476Y-17949D01*
X364579Y-17989D01*
X364681Y-18032D01*
X364782Y-18079D01*
X364881Y-18130D01*
X364978Y-18183D01*
X365072Y-18240D01*
X365165Y-18301D01*
X365256Y-18364D01*
X365345Y-18431D01*
X365431Y-18501D01*
X365514Y-18574D01*
X365596Y-18649D01*
X365674Y-18727D01*
X365749Y-18809D01*
X365822Y-18892D01*
X365892Y-18978D01*
X365959Y-19067D01*
X366022Y-19158D01*
X366083Y-19251D01*
X366140Y-19346D01*
X366193Y-19442D01*
X366244Y-19541D01*
X366291Y-19642D01*
X366334Y-19744D01*
X366374Y-19847D01*
X366410Y-19952D01*
X366442Y-20058D01*
X366471Y-20165D01*
X366496Y-20273D01*
X366517Y-20382D01*
X366534Y-20491D01*
X366548Y-20601D01*
X366557Y-20712D01*
X366563Y-20822D01*
X366565Y-20933D01*
X366565Y-26013D01*
X366563Y-26124D01*
X366557Y-26234D01*
X366548Y-26345D01*
X366534Y-26455D01*
X366517Y-26564D01*
X366496Y-26673D01*
X366471Y-26781D01*
X366442Y-26888D01*
X366410Y-26994D01*
X366374Y-27099D01*
X366334Y-27202D01*
X366291Y-27304D01*
X366244Y-27405D01*
X366193Y-27504D01*
X366140Y-27601D01*
X366083Y-27695D01*
X366022Y-27788D01*
X365959Y-27879D01*
X365892Y-27968D01*
X365822Y-28054D01*
X365749Y-28137D01*
X365674Y-28219D01*
X365596Y-28297D01*
X365514Y-28372D01*
X365431Y-28445D01*
X365345Y-28515D01*
X365256Y-28582D01*
X365165Y-28645D01*
X365072Y-28706D01*
X364977Y-28763D01*
X364881Y-28816D01*
X364782Y-28867D01*
X364681Y-28914D01*
X364579Y-28957D01*
X364476Y-28997D01*
X364371Y-29033D01*
X364265Y-29065D01*
X364158Y-29094D01*
X364050Y-29119D01*
X363941Y-29140D01*
X363832Y-29157D01*
X363722Y-29171D01*
X363611Y-29180D01*
X363501Y-29186D01*
X363390Y-29188D01*
X363279Y-29186D01*
X363169Y-29180D01*
X363058Y-29171D01*
X362948Y-29157D01*
X362839Y-29140D01*
X362730Y-29119D01*
X362622Y-29094D01*
X362515Y-29065D01*
X362409Y-29033D01*
X362304Y-28997D01*
X362201Y-28957D01*
X362099Y-28914D01*
X361998Y-28867D01*
X361899Y-28816D01*
X361803Y-28763D01*
X361708Y-28706D01*
X361615Y-28645D01*
X361524Y-28582D01*
X361435Y-28515D01*
X361349Y-28445D01*
X361266Y-28372D01*
X361184Y-28297D01*
X361106Y-28219D01*
X361031Y-28137D01*
X360958Y-28054D01*
X360888Y-27968D01*
X360821Y-27879D01*
X360758Y-27788D01*
X360697Y-27695D01*
X360640Y-27601D01*
X360587Y-27504D01*
X360536Y-27405D01*
X360489Y-27304D01*
X360446Y-27202D01*
X360406Y-27099D01*
X360370Y-26994D01*
X360338Y-26888D01*
X360309Y-26781D01*
X360284Y-26673D01*
X360263Y-26564D01*
X360246Y-26455D01*
X360232Y-26345D01*
X360223Y-26234D01*
X360217Y-26124D01*
X360215Y-26013D01*
X372153Y-29188D02*
X372153Y-17758D01*
X375963Y-24108D01*
X379773Y-17758D01*
X379773Y-29188D01*
X384853Y-30458D02*
X389933Y-30458D01*
X393870Y-29188D02*
X397680Y-17758D01*
X401490Y-29188D01*
X400538Y-26330D02*
X394823Y-26330D01*
X406399Y-29188D02*
X406399Y-17758D01*
X409574Y-17758D01*
X409685Y-17760D01*
X409795Y-17766D01*
X409906Y-17775D01*
X410016Y-17789D01*
X410125Y-17806D01*
X410234Y-17827D01*
X410342Y-17852D01*
X410449Y-17881D01*
X410555Y-17913D01*
X410660Y-17949D01*
X410763Y-17989D01*
X410865Y-18032D01*
X410966Y-18079D01*
X411065Y-18130D01*
X411162Y-18183D01*
X411256Y-18240D01*
X411349Y-18301D01*
X411440Y-18364D01*
X411529Y-18431D01*
X411615Y-18501D01*
X411698Y-18574D01*
X411780Y-18649D01*
X411858Y-18727D01*
X411933Y-18809D01*
X412006Y-18892D01*
X412076Y-18978D01*
X412143Y-19067D01*
X412206Y-19158D01*
X412267Y-19251D01*
X412324Y-19346D01*
X412377Y-19442D01*
X412428Y-19541D01*
X412475Y-19642D01*
X412518Y-19744D01*
X412558Y-19847D01*
X412594Y-19952D01*
X412626Y-20058D01*
X412655Y-20165D01*
X412680Y-20273D01*
X412701Y-20382D01*
X412718Y-20491D01*
X412732Y-20601D01*
X412741Y-20712D01*
X412747Y-20822D01*
X412749Y-20933D01*
X412747Y-21044D01*
X412741Y-21154D01*
X412732Y-21265D01*
X412718Y-21375D01*
X412701Y-21484D01*
X412680Y-21593D01*
X412655Y-21701D01*
X412626Y-21808D01*
X412594Y-21914D01*
X412558Y-22019D01*
X412518Y-22122D01*
X412475Y-22224D01*
X412428Y-22325D01*
X412377Y-22424D01*
X412324Y-22521D01*
X412267Y-22615D01*
X412206Y-22708D01*
X412143Y-22799D01*
X412076Y-22888D01*
X412006Y-22974D01*
X411933Y-23057D01*
X411858Y-23139D01*
X411780Y-23217D01*
X411698Y-23292D01*
X411615Y-23365D01*
X411529Y-23435D01*
X411440Y-23502D01*
X411349Y-23565D01*
X411256Y-23626D01*
X411162Y-23683D01*
X411065Y-23736D01*
X410966Y-23787D01*
X410865Y-23834D01*
X410763Y-23877D01*
X410660Y-23917D01*
X410555Y-23953D01*
X410449Y-23985D01*
X410342Y-24014D01*
X410234Y-24039D01*
X410125Y-24060D01*
X410016Y-24077D01*
X409906Y-24091D01*
X409795Y-24100D01*
X409685Y-24106D01*
X409574Y-24108D01*
X406399Y-24108D01*
X410209Y-24108D02*
X412749Y-29188D01*
X418127Y-29188D02*
X418127Y-17758D01*
X421302Y-17758D01*
X421413Y-17760D01*
X421523Y-17766D01*
X421634Y-17775D01*
X421744Y-17789D01*
X421853Y-17806D01*
X421962Y-17827D01*
X422070Y-17852D01*
X422177Y-17881D01*
X422283Y-17913D01*
X422388Y-17949D01*
X422491Y-17989D01*
X422593Y-18032D01*
X422694Y-18079D01*
X422793Y-18130D01*
X422890Y-18183D01*
X422984Y-18240D01*
X423077Y-18301D01*
X423168Y-18364D01*
X423257Y-18431D01*
X423343Y-18501D01*
X423426Y-18574D01*
X423508Y-18649D01*
X423586Y-18727D01*
X423661Y-18809D01*
X423734Y-18892D01*
X423804Y-18978D01*
X423871Y-19067D01*
X423934Y-19158D01*
X423995Y-19251D01*
X424052Y-19346D01*
X424105Y-19442D01*
X424156Y-19541D01*
X424203Y-19642D01*
X424246Y-19744D01*
X424286Y-19847D01*
X424322Y-19952D01*
X424354Y-20058D01*
X424383Y-20165D01*
X424408Y-20273D01*
X424429Y-20382D01*
X424446Y-20491D01*
X424460Y-20601D01*
X424469Y-20712D01*
X424475Y-20822D01*
X424477Y-20933D01*
X424477Y-26013D01*
X424475Y-26124D01*
X424469Y-26234D01*
X424460Y-26345D01*
X424446Y-26455D01*
X424429Y-26564D01*
X424408Y-26673D01*
X424383Y-26781D01*
X424354Y-26888D01*
X424322Y-26994D01*
X424286Y-27099D01*
X424246Y-27202D01*
X424203Y-27304D01*
X424156Y-27405D01*
X424105Y-27504D01*
X424052Y-27601D01*
X423995Y-27695D01*
X423934Y-27788D01*
X423871Y-27879D01*
X423804Y-27968D01*
X423734Y-28054D01*
X423661Y-28137D01*
X423586Y-28219D01*
X423508Y-28297D01*
X423426Y-28372D01*
X423343Y-28445D01*
X423257Y-28515D01*
X423168Y-28582D01*
X423077Y-28645D01*
X422984Y-28706D01*
X422890Y-28763D01*
X422793Y-28816D01*
X422694Y-28867D01*
X422593Y-28914D01*
X422491Y-28957D01*
X422388Y-28997D01*
X422283Y-29033D01*
X422177Y-29065D01*
X422070Y-29094D01*
X421962Y-29119D01*
X421853Y-29140D01*
X421744Y-29157D01*
X421634Y-29171D01*
X421523Y-29180D01*
X421413Y-29186D01*
X421302Y-29188D01*
X418127Y-29188D01*
X430319Y-26013D02*
X430319Y-17758D01*
X430319Y-26013D02*
X430321Y-26124D01*
X430327Y-26234D01*
X430336Y-26345D01*
X430350Y-26455D01*
X430367Y-26564D01*
X430388Y-26673D01*
X430413Y-26781D01*
X430442Y-26888D01*
X430474Y-26994D01*
X430510Y-27099D01*
X430550Y-27202D01*
X430593Y-27304D01*
X430640Y-27405D01*
X430691Y-27504D01*
X430744Y-27601D01*
X430801Y-27695D01*
X430862Y-27788D01*
X430925Y-27879D01*
X430992Y-27968D01*
X431062Y-28054D01*
X431135Y-28137D01*
X431210Y-28219D01*
X431288Y-28297D01*
X431370Y-28372D01*
X431453Y-28445D01*
X431539Y-28515D01*
X431628Y-28582D01*
X431719Y-28645D01*
X431812Y-28706D01*
X431907Y-28763D01*
X432003Y-28816D01*
X432102Y-28867D01*
X432203Y-28914D01*
X432305Y-28957D01*
X432408Y-28997D01*
X432513Y-29033D01*
X432619Y-29065D01*
X432726Y-29094D01*
X432834Y-29119D01*
X432943Y-29140D01*
X433052Y-29157D01*
X433162Y-29171D01*
X433273Y-29180D01*
X433383Y-29186D01*
X433494Y-29188D01*
X433605Y-29186D01*
X433715Y-29180D01*
X433826Y-29171D01*
X433936Y-29157D01*
X434045Y-29140D01*
X434154Y-29119D01*
X434262Y-29094D01*
X434369Y-29065D01*
X434475Y-29033D01*
X434580Y-28997D01*
X434683Y-28957D01*
X434785Y-28914D01*
X434886Y-28867D01*
X434985Y-28816D01*
X435081Y-28763D01*
X435176Y-28706D01*
X435269Y-28645D01*
X435360Y-28582D01*
X435449Y-28515D01*
X435535Y-28445D01*
X435618Y-28372D01*
X435700Y-28297D01*
X435778Y-28219D01*
X435853Y-28137D01*
X435926Y-28054D01*
X435996Y-27968D01*
X436063Y-27879D01*
X436126Y-27788D01*
X436187Y-27695D01*
X436244Y-27601D01*
X436297Y-27504D01*
X436348Y-27405D01*
X436395Y-27304D01*
X436438Y-27202D01*
X436478Y-27099D01*
X436514Y-26994D01*
X436546Y-26888D01*
X436575Y-26781D01*
X436600Y-26673D01*
X436621Y-26564D01*
X436638Y-26455D01*
X436652Y-26345D01*
X436661Y-26234D01*
X436667Y-26124D01*
X436669Y-26013D01*
X436669Y-17758D01*
X443019Y-17758D02*
X443019Y-29188D01*
X441749Y-29188D02*
X444289Y-29188D01*
X444289Y-17758D02*
X441749Y-17758D01*
X449369Y-17758D02*
X449369Y-29188D01*
X455719Y-29188D02*
X449369Y-17758D01*
X455719Y-17758D02*
X455719Y-29188D01*
X461180Y-26013D02*
X461180Y-20933D01*
X461182Y-20822D01*
X461188Y-20712D01*
X461197Y-20601D01*
X461211Y-20491D01*
X461228Y-20382D01*
X461249Y-20273D01*
X461274Y-20165D01*
X461303Y-20058D01*
X461335Y-19952D01*
X461371Y-19847D01*
X461411Y-19744D01*
X461454Y-19642D01*
X461501Y-19541D01*
X461552Y-19442D01*
X461605Y-19346D01*
X461662Y-19251D01*
X461723Y-19158D01*
X461786Y-19067D01*
X461853Y-18978D01*
X461923Y-18892D01*
X461996Y-18809D01*
X462071Y-18727D01*
X462149Y-18649D01*
X462231Y-18574D01*
X462314Y-18501D01*
X462400Y-18431D01*
X462489Y-18364D01*
X462580Y-18301D01*
X462673Y-18240D01*
X462768Y-18183D01*
X462864Y-18130D01*
X462963Y-18079D01*
X463064Y-18032D01*
X463166Y-17989D01*
X463269Y-17949D01*
X463374Y-17913D01*
X463480Y-17881D01*
X463587Y-17852D01*
X463695Y-17827D01*
X463804Y-17806D01*
X463913Y-17789D01*
X464023Y-17775D01*
X464134Y-17766D01*
X464244Y-17760D01*
X464355Y-17758D01*
X464466Y-17760D01*
X464576Y-17766D01*
X464687Y-17775D01*
X464797Y-17789D01*
X464906Y-17806D01*
X465015Y-17827D01*
X465123Y-17852D01*
X465230Y-17881D01*
X465336Y-17913D01*
X465441Y-17949D01*
X465544Y-17989D01*
X465646Y-18032D01*
X465747Y-18079D01*
X465846Y-18130D01*
X465943Y-18183D01*
X466037Y-18240D01*
X466130Y-18301D01*
X466221Y-18364D01*
X466310Y-18431D01*
X466396Y-18501D01*
X466479Y-18574D01*
X466561Y-18649D01*
X466639Y-18727D01*
X466714Y-18809D01*
X466787Y-18892D01*
X466857Y-18978D01*
X466924Y-19067D01*
X466987Y-19158D01*
X467048Y-19251D01*
X467105Y-19346D01*
X467158Y-19442D01*
X467209Y-19541D01*
X467256Y-19642D01*
X467299Y-19744D01*
X467339Y-19847D01*
X467375Y-19952D01*
X467407Y-20058D01*
X467436Y-20165D01*
X467461Y-20273D01*
X467482Y-20382D01*
X467499Y-20491D01*
X467513Y-20601D01*
X467522Y-20712D01*
X467528Y-20822D01*
X467530Y-20933D01*
X467530Y-26013D01*
X467528Y-26124D01*
X467522Y-26234D01*
X467513Y-26345D01*
X467499Y-26455D01*
X467482Y-26564D01*
X467461Y-26673D01*
X467436Y-26781D01*
X467407Y-26888D01*
X467375Y-26994D01*
X467339Y-27099D01*
X467299Y-27202D01*
X467256Y-27304D01*
X467209Y-27405D01*
X467158Y-27504D01*
X467105Y-27601D01*
X467048Y-27695D01*
X466987Y-27788D01*
X466924Y-27879D01*
X466857Y-27968D01*
X466787Y-28054D01*
X466714Y-28137D01*
X466639Y-28219D01*
X466561Y-28297D01*
X466479Y-28372D01*
X466396Y-28445D01*
X466310Y-28515D01*
X466221Y-28582D01*
X466130Y-28645D01*
X466037Y-28706D01*
X465942Y-28763D01*
X465846Y-28816D01*
X465747Y-28867D01*
X465646Y-28914D01*
X465544Y-28957D01*
X465441Y-28997D01*
X465336Y-29033D01*
X465230Y-29065D01*
X465123Y-29094D01*
X465015Y-29119D01*
X464906Y-29140D01*
X464797Y-29157D01*
X464687Y-29171D01*
X464576Y-29180D01*
X464466Y-29186D01*
X464355Y-29188D01*
X464244Y-29186D01*
X464134Y-29180D01*
X464023Y-29171D01*
X463913Y-29157D01*
X463804Y-29140D01*
X463695Y-29119D01*
X463587Y-29094D01*
X463480Y-29065D01*
X463374Y-29033D01*
X463269Y-28997D01*
X463166Y-28957D01*
X463064Y-28914D01*
X462963Y-28867D01*
X462864Y-28816D01*
X462768Y-28763D01*
X462673Y-28706D01*
X462580Y-28645D01*
X462489Y-28582D01*
X462400Y-28515D01*
X462314Y-28445D01*
X462231Y-28372D01*
X462149Y-28297D01*
X462071Y-28219D01*
X461996Y-28137D01*
X461923Y-28054D01*
X461853Y-27968D01*
X461786Y-27879D01*
X461723Y-27788D01*
X461662Y-27695D01*
X461605Y-27601D01*
X461552Y-27504D01*
X461501Y-27405D01*
X461454Y-27304D01*
X461411Y-27202D01*
X461371Y-27099D01*
X461335Y-26994D01*
X461303Y-26888D01*
X461274Y-26781D01*
X461249Y-26673D01*
X461228Y-26564D01*
X461211Y-26455D01*
X461197Y-26345D01*
X461188Y-26234D01*
X461182Y-26124D01*
X461180Y-26013D01*
D10*
X533108Y47001D02*
X533110Y47101D01*
X533116Y47200D01*
X533126Y47300D01*
X533139Y47398D01*
X533157Y47497D01*
X533178Y47594D01*
X533203Y47690D01*
X533232Y47786D01*
X533265Y47880D01*
X533301Y47973D01*
X533341Y48064D01*
X533385Y48154D01*
X533432Y48242D01*
X533482Y48328D01*
X533536Y48412D01*
X533593Y48494D01*
X533653Y48573D01*
X533717Y48651D01*
X533783Y48725D01*
X533852Y48797D01*
X533924Y48866D01*
X533998Y48932D01*
X534076Y48996D01*
X534155Y49056D01*
X534237Y49113D01*
X534321Y49167D01*
X534407Y49217D01*
X534495Y49264D01*
X534585Y49308D01*
X534676Y49348D01*
X534769Y49384D01*
X534863Y49417D01*
X534959Y49446D01*
X535055Y49471D01*
X535152Y49492D01*
X535251Y49510D01*
X535349Y49523D01*
X535449Y49533D01*
X535548Y49539D01*
X535648Y49541D01*
X533108Y29221D02*
X533110Y29121D01*
X533116Y29022D01*
X533126Y28922D01*
X533139Y28824D01*
X533157Y28725D01*
X533178Y28628D01*
X533203Y28532D01*
X533232Y28436D01*
X533265Y28342D01*
X533301Y28249D01*
X533341Y28158D01*
X533385Y28068D01*
X533432Y27980D01*
X533482Y27894D01*
X533536Y27810D01*
X533593Y27728D01*
X533653Y27649D01*
X533717Y27571D01*
X533783Y27497D01*
X533852Y27425D01*
X533924Y27356D01*
X533998Y27290D01*
X534076Y27226D01*
X534155Y27166D01*
X534237Y27109D01*
X534321Y27055D01*
X534407Y27005D01*
X534495Y26958D01*
X534585Y26914D01*
X534676Y26874D01*
X534769Y26838D01*
X534863Y26805D01*
X534959Y26776D01*
X535055Y26751D01*
X535152Y26730D01*
X535251Y26712D01*
X535349Y26699D01*
X535449Y26689D01*
X535548Y26683D01*
X535648Y26681D01*
X594068Y26681D02*
X594168Y26683D01*
X594267Y26689D01*
X594367Y26699D01*
X594465Y26712D01*
X594564Y26730D01*
X594661Y26751D01*
X594757Y26776D01*
X594853Y26805D01*
X594947Y26838D01*
X595040Y26874D01*
X595131Y26914D01*
X595221Y26958D01*
X595309Y27005D01*
X595395Y27055D01*
X595479Y27109D01*
X595561Y27166D01*
X595640Y27226D01*
X595718Y27290D01*
X595792Y27356D01*
X595864Y27425D01*
X595933Y27497D01*
X595999Y27571D01*
X596063Y27649D01*
X596123Y27728D01*
X596180Y27810D01*
X596234Y27894D01*
X596284Y27980D01*
X596331Y28068D01*
X596375Y28158D01*
X596415Y28249D01*
X596451Y28342D01*
X596484Y28436D01*
X596513Y28532D01*
X596538Y28628D01*
X596559Y28725D01*
X596577Y28824D01*
X596590Y28922D01*
X596600Y29022D01*
X596606Y29121D01*
X596608Y29221D01*
X596608Y47001D02*
X596606Y47101D01*
X596600Y47200D01*
X596590Y47300D01*
X596577Y47398D01*
X596559Y47497D01*
X596538Y47594D01*
X596513Y47690D01*
X596484Y47786D01*
X596451Y47880D01*
X596415Y47973D01*
X596375Y48064D01*
X596331Y48154D01*
X596284Y48242D01*
X596234Y48328D01*
X596180Y48412D01*
X596123Y48494D01*
X596063Y48573D01*
X595999Y48651D01*
X595933Y48725D01*
X595864Y48797D01*
X595792Y48866D01*
X595718Y48932D01*
X595640Y48996D01*
X595561Y49056D01*
X595479Y49113D01*
X595395Y49167D01*
X595309Y49217D01*
X595221Y49264D01*
X595131Y49308D01*
X595040Y49348D01*
X594947Y49384D01*
X594853Y49417D01*
X594757Y49446D01*
X594661Y49471D01*
X594564Y49492D01*
X594465Y49510D01*
X594367Y49523D01*
X594267Y49533D01*
X594168Y49539D01*
X594068Y49541D01*
X539458Y49541D02*
X535648Y49541D01*
X539458Y49541D02*
X540728Y48271D01*
X539458Y26681D02*
X535648Y26681D01*
X539458Y26681D02*
X540728Y27951D01*
X588988Y48271D02*
X590258Y49541D01*
X588988Y48271D02*
X540728Y48271D01*
X588988Y27951D02*
X590258Y26681D01*
X588988Y27951D02*
X540728Y27951D01*
X590258Y49541D02*
X594068Y49541D01*
X594068Y26681D02*
X590258Y26681D01*
D11*
X540093Y52716D02*
X540093Y64146D01*
X543268Y64146D01*
X543379Y64144D01*
X543489Y64138D01*
X543600Y64129D01*
X543710Y64115D01*
X543819Y64098D01*
X543928Y64077D01*
X544036Y64052D01*
X544143Y64023D01*
X544249Y63991D01*
X544354Y63955D01*
X544457Y63915D01*
X544559Y63872D01*
X544660Y63825D01*
X544759Y63774D01*
X544856Y63721D01*
X544950Y63664D01*
X545043Y63603D01*
X545134Y63540D01*
X545223Y63473D01*
X545309Y63403D01*
X545392Y63330D01*
X545474Y63255D01*
X545552Y63177D01*
X545627Y63095D01*
X545700Y63012D01*
X545770Y62926D01*
X545837Y62837D01*
X545900Y62746D01*
X545961Y62653D01*
X546018Y62559D01*
X546071Y62462D01*
X546122Y62363D01*
X546169Y62262D01*
X546212Y62160D01*
X546252Y62057D01*
X546288Y61952D01*
X546320Y61846D01*
X546349Y61739D01*
X546374Y61631D01*
X546395Y61522D01*
X546412Y61413D01*
X546426Y61303D01*
X546435Y61192D01*
X546441Y61082D01*
X546443Y60971D01*
X546443Y55891D01*
X546441Y55780D01*
X546435Y55670D01*
X546426Y55559D01*
X546412Y55449D01*
X546395Y55340D01*
X546374Y55231D01*
X546349Y55123D01*
X546320Y55016D01*
X546288Y54910D01*
X546252Y54805D01*
X546212Y54702D01*
X546169Y54600D01*
X546122Y54499D01*
X546071Y54400D01*
X546018Y54303D01*
X545961Y54209D01*
X545900Y54116D01*
X545837Y54025D01*
X545770Y53936D01*
X545700Y53850D01*
X545627Y53767D01*
X545552Y53685D01*
X545474Y53607D01*
X545392Y53532D01*
X545309Y53459D01*
X545223Y53389D01*
X545134Y53322D01*
X545043Y53259D01*
X544950Y53198D01*
X544856Y53141D01*
X544759Y53088D01*
X544660Y53037D01*
X544559Y52990D01*
X544457Y52947D01*
X544354Y52907D01*
X544249Y52871D01*
X544143Y52839D01*
X544036Y52810D01*
X543928Y52785D01*
X543819Y52764D01*
X543710Y52747D01*
X543600Y52733D01*
X543489Y52724D01*
X543379Y52718D01*
X543268Y52716D01*
X540093Y52716D01*
X551904Y61606D02*
X555079Y64146D01*
X555079Y52716D01*
X551904Y52716D02*
X558254Y52716D01*
X563334Y58431D02*
X563337Y58656D01*
X563345Y58881D01*
X563358Y59105D01*
X563377Y59329D01*
X563401Y59553D01*
X563430Y59776D01*
X563465Y59998D01*
X563505Y60219D01*
X563551Y60439D01*
X563601Y60658D01*
X563657Y60876D01*
X563718Y61093D01*
X563784Y61308D01*
X563855Y61521D01*
X563932Y61732D01*
X564013Y61942D01*
X564099Y62150D01*
X564190Y62355D01*
X564286Y62558D01*
X564286Y62559D02*
X564318Y62647D01*
X564354Y62734D01*
X564393Y62820D01*
X564436Y62904D01*
X564482Y62986D01*
X564531Y63066D01*
X564583Y63144D01*
X564639Y63220D01*
X564697Y63294D01*
X564759Y63365D01*
X564823Y63434D01*
X564890Y63500D01*
X564959Y63563D01*
X565031Y63624D01*
X565105Y63682D01*
X565182Y63736D01*
X565260Y63788D01*
X565341Y63836D01*
X565423Y63881D01*
X565508Y63923D01*
X565594Y63961D01*
X565681Y63996D01*
X565769Y64028D01*
X565859Y64055D01*
X565950Y64080D01*
X566042Y64100D01*
X566134Y64117D01*
X566228Y64130D01*
X566321Y64139D01*
X566415Y64145D01*
X566509Y64147D01*
X566603Y64145D01*
X566697Y64139D01*
X566790Y64130D01*
X566884Y64117D01*
X566976Y64100D01*
X567068Y64080D01*
X567159Y64055D01*
X567249Y64028D01*
X567337Y63996D01*
X567424Y63961D01*
X567510Y63923D01*
X567595Y63881D01*
X567677Y63836D01*
X567758Y63788D01*
X567836Y63736D01*
X567913Y63682D01*
X567987Y63624D01*
X568059Y63563D01*
X568128Y63500D01*
X568195Y63434D01*
X568259Y63365D01*
X568321Y63294D01*
X568379Y63220D01*
X568435Y63144D01*
X568487Y63066D01*
X568536Y62986D01*
X568582Y62904D01*
X568625Y62820D01*
X568664Y62734D01*
X568700Y62647D01*
X568732Y62559D01*
X568731Y62558D02*
X568827Y62355D01*
X568918Y62150D01*
X569004Y61942D01*
X569085Y61732D01*
X569162Y61521D01*
X569233Y61308D01*
X569299Y61093D01*
X569360Y60876D01*
X569416Y60658D01*
X569466Y60439D01*
X569512Y60219D01*
X569552Y59998D01*
X569587Y59776D01*
X569616Y59553D01*
X569640Y59329D01*
X569659Y59105D01*
X569672Y58881D01*
X569680Y58656D01*
X569683Y58431D01*
X563334Y58431D02*
X563337Y58206D01*
X563345Y57981D01*
X563358Y57757D01*
X563377Y57533D01*
X563401Y57309D01*
X563430Y57086D01*
X563465Y56864D01*
X563505Y56643D01*
X563551Y56423D01*
X563601Y56204D01*
X563657Y55986D01*
X563718Y55769D01*
X563784Y55554D01*
X563855Y55341D01*
X563932Y55130D01*
X564013Y54920D01*
X564099Y54712D01*
X564190Y54507D01*
X564286Y54304D01*
X564318Y54216D01*
X564354Y54129D01*
X564393Y54043D01*
X564436Y53959D01*
X564482Y53877D01*
X564531Y53797D01*
X564583Y53719D01*
X564639Y53643D01*
X564697Y53569D01*
X564759Y53498D01*
X564823Y53429D01*
X564890Y53363D01*
X564959Y53300D01*
X565031Y53239D01*
X565105Y53181D01*
X565182Y53127D01*
X565260Y53075D01*
X565341Y53027D01*
X565423Y52982D01*
X565508Y52940D01*
X565594Y52902D01*
X565681Y52867D01*
X565769Y52835D01*
X565859Y52808D01*
X565950Y52783D01*
X566042Y52763D01*
X566134Y52746D01*
X566228Y52733D01*
X566321Y52724D01*
X566415Y52718D01*
X566509Y52716D01*
X568731Y54304D02*
X568827Y54507D01*
X568918Y54712D01*
X569004Y54920D01*
X569085Y55130D01*
X569162Y55341D01*
X569233Y55554D01*
X569299Y55769D01*
X569360Y55986D01*
X569416Y56204D01*
X569466Y56423D01*
X569512Y56643D01*
X569552Y56864D01*
X569587Y57086D01*
X569616Y57309D01*
X569640Y57533D01*
X569659Y57757D01*
X569672Y57981D01*
X569680Y58206D01*
X569683Y58431D01*
X568732Y54304D02*
X568700Y54216D01*
X568664Y54129D01*
X568625Y54043D01*
X568582Y53959D01*
X568536Y53877D01*
X568487Y53797D01*
X568435Y53719D01*
X568379Y53643D01*
X568321Y53569D01*
X568259Y53498D01*
X568195Y53429D01*
X568128Y53363D01*
X568059Y53300D01*
X567987Y53239D01*
X567913Y53181D01*
X567836Y53127D01*
X567758Y53075D01*
X567677Y53027D01*
X567595Y52982D01*
X567510Y52940D01*
X567424Y52902D01*
X567337Y52867D01*
X567249Y52835D01*
X567159Y52808D01*
X567068Y52783D01*
X566976Y52763D01*
X566884Y52746D01*
X566790Y52733D01*
X566697Y52724D01*
X566603Y52718D01*
X566509Y52716D01*
X563969Y55256D02*
X569049Y61606D01*
D10*
X533926Y103104D02*
X533928Y103204D01*
X533934Y103303D01*
X533944Y103403D01*
X533957Y103501D01*
X533975Y103600D01*
X533996Y103697D01*
X534021Y103793D01*
X534050Y103889D01*
X534083Y103983D01*
X534119Y104076D01*
X534159Y104167D01*
X534203Y104257D01*
X534250Y104345D01*
X534300Y104431D01*
X534354Y104515D01*
X534411Y104597D01*
X534471Y104676D01*
X534535Y104754D01*
X534601Y104828D01*
X534670Y104900D01*
X534742Y104969D01*
X534816Y105035D01*
X534894Y105099D01*
X534973Y105159D01*
X535055Y105216D01*
X535139Y105270D01*
X535225Y105320D01*
X535313Y105367D01*
X535403Y105411D01*
X535494Y105451D01*
X535587Y105487D01*
X535681Y105520D01*
X535777Y105549D01*
X535873Y105574D01*
X535970Y105595D01*
X536069Y105613D01*
X536167Y105626D01*
X536267Y105636D01*
X536366Y105642D01*
X536466Y105644D01*
X533926Y85324D02*
X533928Y85224D01*
X533934Y85125D01*
X533944Y85025D01*
X533957Y84927D01*
X533975Y84828D01*
X533996Y84731D01*
X534021Y84635D01*
X534050Y84539D01*
X534083Y84445D01*
X534119Y84352D01*
X534159Y84261D01*
X534203Y84171D01*
X534250Y84083D01*
X534300Y83997D01*
X534354Y83913D01*
X534411Y83831D01*
X534471Y83752D01*
X534535Y83674D01*
X534601Y83600D01*
X534670Y83528D01*
X534742Y83459D01*
X534816Y83393D01*
X534894Y83329D01*
X534973Y83269D01*
X535055Y83212D01*
X535139Y83158D01*
X535225Y83108D01*
X535313Y83061D01*
X535403Y83017D01*
X535494Y82977D01*
X535587Y82941D01*
X535681Y82908D01*
X535777Y82879D01*
X535873Y82854D01*
X535970Y82833D01*
X536069Y82815D01*
X536167Y82802D01*
X536267Y82792D01*
X536366Y82786D01*
X536466Y82784D01*
X594886Y82784D02*
X594986Y82786D01*
X595085Y82792D01*
X595185Y82802D01*
X595283Y82815D01*
X595382Y82833D01*
X595479Y82854D01*
X595575Y82879D01*
X595671Y82908D01*
X595765Y82941D01*
X595858Y82977D01*
X595949Y83017D01*
X596039Y83061D01*
X596127Y83108D01*
X596213Y83158D01*
X596297Y83212D01*
X596379Y83269D01*
X596458Y83329D01*
X596536Y83393D01*
X596610Y83459D01*
X596682Y83528D01*
X596751Y83600D01*
X596817Y83674D01*
X596881Y83752D01*
X596941Y83831D01*
X596998Y83913D01*
X597052Y83997D01*
X597102Y84083D01*
X597149Y84171D01*
X597193Y84261D01*
X597233Y84352D01*
X597269Y84445D01*
X597302Y84539D01*
X597331Y84635D01*
X597356Y84731D01*
X597377Y84828D01*
X597395Y84927D01*
X597408Y85025D01*
X597418Y85125D01*
X597424Y85224D01*
X597426Y85324D01*
X597426Y103104D02*
X597424Y103204D01*
X597418Y103303D01*
X597408Y103403D01*
X597395Y103501D01*
X597377Y103600D01*
X597356Y103697D01*
X597331Y103793D01*
X597302Y103889D01*
X597269Y103983D01*
X597233Y104076D01*
X597193Y104167D01*
X597149Y104257D01*
X597102Y104345D01*
X597052Y104431D01*
X596998Y104515D01*
X596941Y104597D01*
X596881Y104676D01*
X596817Y104754D01*
X596751Y104828D01*
X596682Y104900D01*
X596610Y104969D01*
X596536Y105035D01*
X596458Y105099D01*
X596379Y105159D01*
X596297Y105216D01*
X596213Y105270D01*
X596127Y105320D01*
X596039Y105367D01*
X595949Y105411D01*
X595858Y105451D01*
X595765Y105487D01*
X595671Y105520D01*
X595575Y105549D01*
X595479Y105574D01*
X595382Y105595D01*
X595283Y105613D01*
X595185Y105626D01*
X595085Y105636D01*
X594986Y105642D01*
X594886Y105644D01*
X540276Y105644D02*
X536466Y105644D01*
X540276Y105644D02*
X541546Y104374D01*
X540276Y82784D02*
X536466Y82784D01*
X540276Y82784D02*
X541546Y84054D01*
X589806Y104374D02*
X591076Y105644D01*
X589806Y104374D02*
X541546Y104374D01*
X589806Y84054D02*
X591076Y82784D01*
X589806Y84054D02*
X541546Y84054D01*
X591076Y105644D02*
X594886Y105644D01*
X594886Y82784D02*
X591076Y82784D01*
D11*
X540911Y108819D02*
X540911Y120249D01*
X544086Y120249D01*
X544197Y120247D01*
X544307Y120241D01*
X544418Y120232D01*
X544528Y120218D01*
X544637Y120201D01*
X544746Y120180D01*
X544854Y120155D01*
X544961Y120126D01*
X545067Y120094D01*
X545172Y120058D01*
X545275Y120018D01*
X545377Y119975D01*
X545478Y119928D01*
X545577Y119877D01*
X545674Y119824D01*
X545768Y119767D01*
X545861Y119706D01*
X545952Y119643D01*
X546041Y119576D01*
X546127Y119506D01*
X546210Y119433D01*
X546292Y119358D01*
X546370Y119280D01*
X546445Y119198D01*
X546518Y119115D01*
X546588Y119029D01*
X546655Y118940D01*
X546718Y118849D01*
X546779Y118756D01*
X546836Y118662D01*
X546889Y118565D01*
X546940Y118466D01*
X546987Y118365D01*
X547030Y118263D01*
X547070Y118160D01*
X547106Y118055D01*
X547138Y117949D01*
X547167Y117842D01*
X547192Y117734D01*
X547213Y117625D01*
X547230Y117516D01*
X547244Y117406D01*
X547253Y117295D01*
X547259Y117185D01*
X547261Y117074D01*
X547261Y111994D01*
X547259Y111883D01*
X547253Y111773D01*
X547244Y111662D01*
X547230Y111552D01*
X547213Y111443D01*
X547192Y111334D01*
X547167Y111226D01*
X547138Y111119D01*
X547106Y111013D01*
X547070Y110908D01*
X547030Y110805D01*
X546987Y110703D01*
X546940Y110602D01*
X546889Y110503D01*
X546836Y110406D01*
X546779Y110312D01*
X546718Y110219D01*
X546655Y110128D01*
X546588Y110039D01*
X546518Y109953D01*
X546445Y109870D01*
X546370Y109788D01*
X546292Y109710D01*
X546210Y109635D01*
X546127Y109562D01*
X546041Y109492D01*
X545952Y109425D01*
X545861Y109362D01*
X545768Y109301D01*
X545674Y109244D01*
X545577Y109191D01*
X545478Y109140D01*
X545377Y109093D01*
X545275Y109050D01*
X545172Y109010D01*
X545067Y108974D01*
X544961Y108942D01*
X544854Y108913D01*
X544746Y108888D01*
X544637Y108867D01*
X544528Y108850D01*
X544418Y108836D01*
X544307Y108827D01*
X544197Y108821D01*
X544086Y108819D01*
X540911Y108819D01*
X552722Y117709D02*
X555897Y120249D01*
X555897Y108819D01*
X552722Y108819D02*
X559072Y108819D01*
X564152Y117709D02*
X567327Y120249D01*
X567327Y108819D01*
X564152Y108819D02*
X570502Y108819D01*
D10*
X141532Y27811D02*
X141432Y27809D01*
X141333Y27803D01*
X141233Y27793D01*
X141135Y27780D01*
X141036Y27762D01*
X140939Y27741D01*
X140843Y27716D01*
X140747Y27687D01*
X140653Y27654D01*
X140560Y27618D01*
X140469Y27578D01*
X140379Y27534D01*
X140291Y27487D01*
X140205Y27437D01*
X140121Y27383D01*
X140039Y27326D01*
X139960Y27266D01*
X139882Y27202D01*
X139808Y27136D01*
X139736Y27067D01*
X139667Y26995D01*
X139601Y26921D01*
X139537Y26843D01*
X139477Y26764D01*
X139420Y26682D01*
X139366Y26598D01*
X139316Y26512D01*
X139269Y26424D01*
X139225Y26334D01*
X139185Y26243D01*
X139149Y26150D01*
X139116Y26056D01*
X139087Y25960D01*
X139062Y25864D01*
X139041Y25767D01*
X139023Y25668D01*
X139010Y25570D01*
X139000Y25470D01*
X138994Y25371D01*
X138992Y25271D01*
X138992Y7491D02*
X138994Y7391D01*
X139000Y7292D01*
X139010Y7192D01*
X139023Y7094D01*
X139041Y6995D01*
X139062Y6898D01*
X139087Y6802D01*
X139116Y6706D01*
X139149Y6612D01*
X139185Y6519D01*
X139225Y6428D01*
X139269Y6338D01*
X139316Y6250D01*
X139366Y6164D01*
X139420Y6080D01*
X139477Y5998D01*
X139537Y5919D01*
X139601Y5841D01*
X139667Y5767D01*
X139736Y5695D01*
X139808Y5626D01*
X139882Y5560D01*
X139960Y5496D01*
X140039Y5436D01*
X140121Y5379D01*
X140205Y5325D01*
X140291Y5275D01*
X140379Y5228D01*
X140469Y5184D01*
X140560Y5144D01*
X140653Y5108D01*
X140747Y5075D01*
X140843Y5046D01*
X140939Y5021D01*
X141036Y5000D01*
X141135Y4982D01*
X141233Y4969D01*
X141333Y4959D01*
X141432Y4953D01*
X141532Y4951D01*
X199952Y4951D02*
X200052Y4953D01*
X200151Y4959D01*
X200251Y4969D01*
X200349Y4982D01*
X200448Y5000D01*
X200545Y5021D01*
X200641Y5046D01*
X200737Y5075D01*
X200831Y5108D01*
X200924Y5144D01*
X201015Y5184D01*
X201105Y5228D01*
X201193Y5275D01*
X201279Y5325D01*
X201363Y5379D01*
X201445Y5436D01*
X201524Y5496D01*
X201602Y5560D01*
X201676Y5626D01*
X201748Y5695D01*
X201817Y5767D01*
X201883Y5841D01*
X201947Y5919D01*
X202007Y5998D01*
X202064Y6080D01*
X202118Y6164D01*
X202168Y6250D01*
X202215Y6338D01*
X202259Y6428D01*
X202299Y6519D01*
X202335Y6612D01*
X202368Y6706D01*
X202397Y6802D01*
X202422Y6898D01*
X202443Y6995D01*
X202461Y7094D01*
X202474Y7192D01*
X202484Y7292D01*
X202490Y7391D01*
X202492Y7491D01*
X202492Y25271D02*
X202490Y25371D01*
X202484Y25470D01*
X202474Y25570D01*
X202461Y25668D01*
X202443Y25767D01*
X202422Y25864D01*
X202397Y25960D01*
X202368Y26056D01*
X202335Y26150D01*
X202299Y26243D01*
X202259Y26334D01*
X202215Y26424D01*
X202168Y26512D01*
X202118Y26598D01*
X202064Y26682D01*
X202007Y26764D01*
X201947Y26843D01*
X201883Y26921D01*
X201817Y26995D01*
X201748Y27067D01*
X201676Y27136D01*
X201602Y27202D01*
X201524Y27266D01*
X201445Y27326D01*
X201363Y27383D01*
X201279Y27437D01*
X201193Y27487D01*
X201105Y27534D01*
X201015Y27578D01*
X200924Y27618D01*
X200831Y27654D01*
X200737Y27687D01*
X200641Y27716D01*
X200545Y27741D01*
X200448Y27762D01*
X200349Y27780D01*
X200251Y27793D01*
X200151Y27803D01*
X200052Y27809D01*
X199952Y27811D01*
X145342Y27811D02*
X141532Y27811D01*
X145342Y27811D02*
X146612Y26541D01*
X145342Y4951D02*
X141532Y4951D01*
X145342Y4951D02*
X146612Y6221D01*
X194872Y26541D02*
X196142Y27811D01*
X194872Y26541D02*
X146612Y26541D01*
X194872Y6221D02*
X196142Y4951D01*
X194872Y6221D02*
X146612Y6221D01*
X196142Y27811D02*
X199952Y27811D01*
X199952Y4951D02*
X196142Y4951D01*
D11*
X145977Y30986D02*
X145977Y42416D01*
X149152Y42416D01*
X149263Y42414D01*
X149373Y42408D01*
X149484Y42399D01*
X149594Y42385D01*
X149703Y42368D01*
X149812Y42347D01*
X149920Y42322D01*
X150027Y42293D01*
X150133Y42261D01*
X150238Y42225D01*
X150341Y42185D01*
X150443Y42142D01*
X150544Y42095D01*
X150643Y42044D01*
X150740Y41991D01*
X150834Y41934D01*
X150927Y41873D01*
X151018Y41810D01*
X151107Y41743D01*
X151193Y41673D01*
X151276Y41600D01*
X151358Y41525D01*
X151436Y41447D01*
X151511Y41365D01*
X151584Y41282D01*
X151654Y41196D01*
X151721Y41107D01*
X151784Y41016D01*
X151845Y40923D01*
X151902Y40829D01*
X151955Y40732D01*
X152006Y40633D01*
X152053Y40532D01*
X152096Y40430D01*
X152136Y40327D01*
X152172Y40222D01*
X152204Y40116D01*
X152233Y40009D01*
X152258Y39901D01*
X152279Y39792D01*
X152296Y39683D01*
X152310Y39573D01*
X152319Y39462D01*
X152325Y39352D01*
X152327Y39241D01*
X152327Y34161D01*
X152325Y34050D01*
X152319Y33940D01*
X152310Y33829D01*
X152296Y33719D01*
X152279Y33610D01*
X152258Y33501D01*
X152233Y33393D01*
X152204Y33286D01*
X152172Y33180D01*
X152136Y33075D01*
X152096Y32972D01*
X152053Y32870D01*
X152006Y32769D01*
X151955Y32670D01*
X151902Y32573D01*
X151845Y32479D01*
X151784Y32386D01*
X151721Y32295D01*
X151654Y32206D01*
X151584Y32120D01*
X151511Y32037D01*
X151436Y31955D01*
X151358Y31877D01*
X151276Y31802D01*
X151193Y31729D01*
X151107Y31659D01*
X151018Y31592D01*
X150927Y31529D01*
X150834Y31468D01*
X150739Y31411D01*
X150643Y31358D01*
X150544Y31307D01*
X150443Y31260D01*
X150341Y31217D01*
X150238Y31177D01*
X150133Y31141D01*
X150027Y31109D01*
X149920Y31080D01*
X149812Y31055D01*
X149703Y31034D01*
X149594Y31017D01*
X149484Y31003D01*
X149373Y30994D01*
X149263Y30988D01*
X149152Y30986D01*
X145977Y30986D01*
X157788Y37336D02*
X161598Y37336D01*
X161698Y37334D01*
X161797Y37328D01*
X161897Y37318D01*
X161995Y37305D01*
X162094Y37287D01*
X162191Y37266D01*
X162287Y37241D01*
X162383Y37212D01*
X162477Y37179D01*
X162570Y37143D01*
X162661Y37103D01*
X162751Y37059D01*
X162839Y37012D01*
X162925Y36962D01*
X163009Y36908D01*
X163091Y36851D01*
X163170Y36791D01*
X163248Y36727D01*
X163322Y36661D01*
X163394Y36592D01*
X163463Y36520D01*
X163529Y36446D01*
X163593Y36368D01*
X163653Y36289D01*
X163710Y36207D01*
X163764Y36123D01*
X163814Y36037D01*
X163861Y35949D01*
X163905Y35859D01*
X163945Y35768D01*
X163981Y35675D01*
X164014Y35581D01*
X164043Y35485D01*
X164068Y35389D01*
X164089Y35292D01*
X164107Y35193D01*
X164120Y35095D01*
X164130Y34995D01*
X164136Y34896D01*
X164138Y34796D01*
X164138Y34161D01*
X164136Y34050D01*
X164130Y33940D01*
X164121Y33829D01*
X164107Y33719D01*
X164090Y33610D01*
X164069Y33501D01*
X164044Y33393D01*
X164015Y33286D01*
X163983Y33180D01*
X163947Y33075D01*
X163907Y32972D01*
X163864Y32870D01*
X163817Y32769D01*
X163766Y32670D01*
X163713Y32573D01*
X163656Y32479D01*
X163595Y32386D01*
X163532Y32295D01*
X163465Y32206D01*
X163395Y32120D01*
X163322Y32037D01*
X163247Y31955D01*
X163169Y31877D01*
X163087Y31802D01*
X163004Y31729D01*
X162918Y31659D01*
X162829Y31592D01*
X162738Y31529D01*
X162645Y31468D01*
X162550Y31411D01*
X162454Y31358D01*
X162355Y31307D01*
X162254Y31260D01*
X162152Y31217D01*
X162049Y31177D01*
X161944Y31141D01*
X161838Y31109D01*
X161731Y31080D01*
X161623Y31055D01*
X161514Y31034D01*
X161405Y31017D01*
X161295Y31003D01*
X161184Y30994D01*
X161074Y30988D01*
X160963Y30986D01*
X160852Y30988D01*
X160742Y30994D01*
X160631Y31003D01*
X160521Y31017D01*
X160412Y31034D01*
X160303Y31055D01*
X160195Y31080D01*
X160088Y31109D01*
X159982Y31141D01*
X159877Y31177D01*
X159774Y31217D01*
X159672Y31260D01*
X159571Y31307D01*
X159472Y31358D01*
X159376Y31411D01*
X159281Y31468D01*
X159188Y31529D01*
X159097Y31592D01*
X159008Y31659D01*
X158922Y31729D01*
X158839Y31802D01*
X158757Y31877D01*
X158679Y31955D01*
X158604Y32037D01*
X158531Y32120D01*
X158461Y32206D01*
X158394Y32295D01*
X158331Y32386D01*
X158270Y32479D01*
X158213Y32574D01*
X158160Y32670D01*
X158109Y32769D01*
X158062Y32870D01*
X158019Y32972D01*
X157979Y33075D01*
X157943Y33180D01*
X157911Y33286D01*
X157882Y33393D01*
X157857Y33501D01*
X157836Y33610D01*
X157819Y33719D01*
X157805Y33829D01*
X157796Y33940D01*
X157790Y34050D01*
X157788Y34161D01*
X157788Y37336D01*
X157790Y37476D01*
X157796Y37616D01*
X157805Y37756D01*
X157819Y37895D01*
X157836Y38034D01*
X157857Y38172D01*
X157882Y38310D01*
X157911Y38447D01*
X157943Y38583D01*
X157980Y38718D01*
X158020Y38852D01*
X158063Y38985D01*
X158111Y39117D01*
X158161Y39248D01*
X158216Y39377D01*
X158274Y39504D01*
X158335Y39630D01*
X158400Y39754D01*
X158469Y39876D01*
X158540Y39996D01*
X158615Y40114D01*
X158693Y40231D01*
X158775Y40345D01*
X158859Y40456D01*
X158947Y40565D01*
X159037Y40672D01*
X159131Y40777D01*
X159227Y40878D01*
X159326Y40977D01*
X159427Y41073D01*
X159532Y41167D01*
X159639Y41257D01*
X159748Y41345D01*
X159859Y41429D01*
X159973Y41511D01*
X160090Y41589D01*
X160208Y41664D01*
X160328Y41735D01*
X160450Y41804D01*
X160574Y41869D01*
X160700Y41930D01*
X160827Y41988D01*
X160956Y42043D01*
X161087Y42093D01*
X161219Y42141D01*
X161352Y42184D01*
X161486Y42224D01*
X161621Y42261D01*
X161757Y42293D01*
X161894Y42322D01*
X162032Y42347D01*
X162170Y42368D01*
X162309Y42385D01*
X162448Y42399D01*
X162588Y42408D01*
X162728Y42414D01*
X162868Y42416D01*
D10*
X144021Y144120D02*
X144023Y144220D01*
X144029Y144319D01*
X144039Y144419D01*
X144052Y144517D01*
X144070Y144616D01*
X144091Y144713D01*
X144116Y144809D01*
X144145Y144905D01*
X144178Y144999D01*
X144214Y145092D01*
X144254Y145183D01*
X144298Y145273D01*
X144345Y145361D01*
X144395Y145447D01*
X144449Y145531D01*
X144506Y145613D01*
X144566Y145692D01*
X144630Y145770D01*
X144696Y145844D01*
X144765Y145916D01*
X144837Y145985D01*
X144911Y146051D01*
X144989Y146115D01*
X145068Y146175D01*
X145150Y146232D01*
X145234Y146286D01*
X145320Y146336D01*
X145408Y146383D01*
X145498Y146427D01*
X145589Y146467D01*
X145682Y146503D01*
X145776Y146536D01*
X145872Y146565D01*
X145968Y146590D01*
X146065Y146611D01*
X146164Y146629D01*
X146262Y146642D01*
X146362Y146652D01*
X146461Y146658D01*
X146561Y146660D01*
X144021Y126340D02*
X144023Y126240D01*
X144029Y126141D01*
X144039Y126041D01*
X144052Y125943D01*
X144070Y125844D01*
X144091Y125747D01*
X144116Y125651D01*
X144145Y125555D01*
X144178Y125461D01*
X144214Y125368D01*
X144254Y125277D01*
X144298Y125187D01*
X144345Y125099D01*
X144395Y125013D01*
X144449Y124929D01*
X144506Y124847D01*
X144566Y124768D01*
X144630Y124690D01*
X144696Y124616D01*
X144765Y124544D01*
X144837Y124475D01*
X144911Y124409D01*
X144989Y124345D01*
X145068Y124285D01*
X145150Y124228D01*
X145234Y124174D01*
X145320Y124124D01*
X145408Y124077D01*
X145498Y124033D01*
X145589Y123993D01*
X145682Y123957D01*
X145776Y123924D01*
X145872Y123895D01*
X145968Y123870D01*
X146065Y123849D01*
X146164Y123831D01*
X146262Y123818D01*
X146362Y123808D01*
X146461Y123802D01*
X146561Y123800D01*
X204981Y123800D02*
X205081Y123802D01*
X205180Y123808D01*
X205280Y123818D01*
X205378Y123831D01*
X205477Y123849D01*
X205574Y123870D01*
X205670Y123895D01*
X205766Y123924D01*
X205860Y123957D01*
X205953Y123993D01*
X206044Y124033D01*
X206134Y124077D01*
X206222Y124124D01*
X206308Y124174D01*
X206392Y124228D01*
X206474Y124285D01*
X206553Y124345D01*
X206631Y124409D01*
X206705Y124475D01*
X206777Y124544D01*
X206846Y124616D01*
X206912Y124690D01*
X206976Y124768D01*
X207036Y124847D01*
X207093Y124929D01*
X207147Y125013D01*
X207197Y125099D01*
X207244Y125187D01*
X207288Y125277D01*
X207328Y125368D01*
X207364Y125461D01*
X207397Y125555D01*
X207426Y125651D01*
X207451Y125747D01*
X207472Y125844D01*
X207490Y125943D01*
X207503Y126041D01*
X207513Y126141D01*
X207519Y126240D01*
X207521Y126340D01*
X207521Y144120D02*
X207519Y144220D01*
X207513Y144319D01*
X207503Y144419D01*
X207490Y144517D01*
X207472Y144616D01*
X207451Y144713D01*
X207426Y144809D01*
X207397Y144905D01*
X207364Y144999D01*
X207328Y145092D01*
X207288Y145183D01*
X207244Y145273D01*
X207197Y145361D01*
X207147Y145447D01*
X207093Y145531D01*
X207036Y145613D01*
X206976Y145692D01*
X206912Y145770D01*
X206846Y145844D01*
X206777Y145916D01*
X206705Y145985D01*
X206631Y146051D01*
X206553Y146115D01*
X206474Y146175D01*
X206392Y146232D01*
X206308Y146286D01*
X206222Y146336D01*
X206134Y146383D01*
X206044Y146427D01*
X205953Y146467D01*
X205860Y146503D01*
X205766Y146536D01*
X205670Y146565D01*
X205574Y146590D01*
X205477Y146611D01*
X205378Y146629D01*
X205280Y146642D01*
X205180Y146652D01*
X205081Y146658D01*
X204981Y146660D01*
X150371Y146660D02*
X146561Y146660D01*
X150371Y146660D02*
X151641Y145390D01*
X150371Y123800D02*
X146561Y123800D01*
X150371Y123800D02*
X151641Y125070D01*
X199901Y145390D02*
X201171Y146660D01*
X199901Y145390D02*
X151641Y145390D01*
X199901Y125070D02*
X201171Y123800D01*
X199901Y125070D02*
X151641Y125070D01*
X201171Y146660D02*
X204981Y146660D01*
X204981Y123800D02*
X201171Y123800D01*
D11*
X151006Y149835D02*
X151006Y161265D01*
X154181Y161265D01*
X154292Y161263D01*
X154402Y161257D01*
X154513Y161248D01*
X154623Y161234D01*
X154732Y161217D01*
X154841Y161196D01*
X154949Y161171D01*
X155056Y161142D01*
X155162Y161110D01*
X155267Y161074D01*
X155370Y161034D01*
X155472Y160991D01*
X155573Y160944D01*
X155672Y160893D01*
X155769Y160840D01*
X155863Y160783D01*
X155956Y160722D01*
X156047Y160659D01*
X156136Y160592D01*
X156222Y160522D01*
X156305Y160449D01*
X156387Y160374D01*
X156465Y160296D01*
X156540Y160214D01*
X156613Y160131D01*
X156683Y160045D01*
X156750Y159956D01*
X156813Y159865D01*
X156874Y159772D01*
X156931Y159678D01*
X156984Y159581D01*
X157035Y159482D01*
X157082Y159381D01*
X157125Y159279D01*
X157165Y159176D01*
X157201Y159071D01*
X157233Y158965D01*
X157262Y158858D01*
X157287Y158750D01*
X157308Y158641D01*
X157325Y158532D01*
X157339Y158422D01*
X157348Y158311D01*
X157354Y158201D01*
X157356Y158090D01*
X157356Y153010D01*
X157354Y152899D01*
X157348Y152789D01*
X157339Y152678D01*
X157325Y152568D01*
X157308Y152459D01*
X157287Y152350D01*
X157262Y152242D01*
X157233Y152135D01*
X157201Y152029D01*
X157165Y151924D01*
X157125Y151821D01*
X157082Y151719D01*
X157035Y151618D01*
X156984Y151519D01*
X156931Y151422D01*
X156874Y151328D01*
X156813Y151235D01*
X156750Y151144D01*
X156683Y151055D01*
X156613Y150969D01*
X156540Y150886D01*
X156465Y150804D01*
X156387Y150726D01*
X156305Y150651D01*
X156222Y150578D01*
X156136Y150508D01*
X156047Y150441D01*
X155956Y150378D01*
X155863Y150317D01*
X155768Y150260D01*
X155672Y150207D01*
X155573Y150156D01*
X155472Y150109D01*
X155370Y150066D01*
X155267Y150026D01*
X155162Y149990D01*
X155056Y149958D01*
X154949Y149929D01*
X154841Y149904D01*
X154732Y149883D01*
X154623Y149866D01*
X154513Y149852D01*
X154402Y149843D01*
X154292Y149837D01*
X154181Y149835D01*
X151006Y149835D01*
X162817Y159995D02*
X162817Y161265D01*
X169167Y161265D01*
X165992Y149835D01*
D10*
X535269Y-8824D02*
X535271Y-8724D01*
X535277Y-8625D01*
X535287Y-8525D01*
X535300Y-8427D01*
X535318Y-8328D01*
X535339Y-8231D01*
X535364Y-8135D01*
X535393Y-8039D01*
X535426Y-7945D01*
X535462Y-7852D01*
X535502Y-7761D01*
X535546Y-7671D01*
X535593Y-7583D01*
X535643Y-7497D01*
X535697Y-7413D01*
X535754Y-7331D01*
X535814Y-7252D01*
X535878Y-7174D01*
X535944Y-7100D01*
X536013Y-7028D01*
X536085Y-6959D01*
X536159Y-6893D01*
X536237Y-6829D01*
X536316Y-6769D01*
X536398Y-6712D01*
X536482Y-6658D01*
X536568Y-6608D01*
X536656Y-6561D01*
X536746Y-6517D01*
X536837Y-6477D01*
X536930Y-6441D01*
X537024Y-6408D01*
X537120Y-6379D01*
X537216Y-6354D01*
X537313Y-6333D01*
X537412Y-6315D01*
X537510Y-6302D01*
X537610Y-6292D01*
X537709Y-6286D01*
X537809Y-6284D01*
X535269Y-26604D02*
X535271Y-26704D01*
X535277Y-26803D01*
X535287Y-26903D01*
X535300Y-27001D01*
X535318Y-27100D01*
X535339Y-27197D01*
X535364Y-27293D01*
X535393Y-27389D01*
X535426Y-27483D01*
X535462Y-27576D01*
X535502Y-27667D01*
X535546Y-27757D01*
X535593Y-27845D01*
X535643Y-27931D01*
X535697Y-28015D01*
X535754Y-28097D01*
X535814Y-28176D01*
X535878Y-28254D01*
X535944Y-28328D01*
X536013Y-28400D01*
X536085Y-28469D01*
X536159Y-28535D01*
X536237Y-28599D01*
X536316Y-28659D01*
X536398Y-28716D01*
X536482Y-28770D01*
X536568Y-28820D01*
X536656Y-28867D01*
X536746Y-28911D01*
X536837Y-28951D01*
X536930Y-28987D01*
X537024Y-29020D01*
X537120Y-29049D01*
X537216Y-29074D01*
X537313Y-29095D01*
X537412Y-29113D01*
X537510Y-29126D01*
X537610Y-29136D01*
X537709Y-29142D01*
X537809Y-29144D01*
X596229Y-29144D02*
X596329Y-29142D01*
X596428Y-29136D01*
X596528Y-29126D01*
X596626Y-29113D01*
X596725Y-29095D01*
X596822Y-29074D01*
X596918Y-29049D01*
X597014Y-29020D01*
X597108Y-28987D01*
X597201Y-28951D01*
X597292Y-28911D01*
X597382Y-28867D01*
X597470Y-28820D01*
X597556Y-28770D01*
X597640Y-28716D01*
X597722Y-28659D01*
X597801Y-28599D01*
X597879Y-28535D01*
X597953Y-28469D01*
X598025Y-28400D01*
X598094Y-28328D01*
X598160Y-28254D01*
X598224Y-28176D01*
X598284Y-28097D01*
X598341Y-28015D01*
X598395Y-27931D01*
X598445Y-27845D01*
X598492Y-27757D01*
X598536Y-27667D01*
X598576Y-27576D01*
X598612Y-27483D01*
X598645Y-27389D01*
X598674Y-27293D01*
X598699Y-27197D01*
X598720Y-27100D01*
X598738Y-27001D01*
X598751Y-26903D01*
X598761Y-26803D01*
X598767Y-26704D01*
X598769Y-26604D01*
X598769Y-8824D02*
X598767Y-8724D01*
X598761Y-8625D01*
X598751Y-8525D01*
X598738Y-8427D01*
X598720Y-8328D01*
X598699Y-8231D01*
X598674Y-8135D01*
X598645Y-8039D01*
X598612Y-7945D01*
X598576Y-7852D01*
X598536Y-7761D01*
X598492Y-7671D01*
X598445Y-7583D01*
X598395Y-7497D01*
X598341Y-7413D01*
X598284Y-7331D01*
X598224Y-7252D01*
X598160Y-7174D01*
X598094Y-7100D01*
X598025Y-7028D01*
X597953Y-6959D01*
X597879Y-6893D01*
X597801Y-6829D01*
X597722Y-6769D01*
X597640Y-6712D01*
X597556Y-6658D01*
X597470Y-6608D01*
X597382Y-6561D01*
X597292Y-6517D01*
X597201Y-6477D01*
X597108Y-6441D01*
X597014Y-6408D01*
X596918Y-6379D01*
X596822Y-6354D01*
X596725Y-6333D01*
X596626Y-6315D01*
X596528Y-6302D01*
X596428Y-6292D01*
X596329Y-6286D01*
X596229Y-6284D01*
X541619Y-6284D02*
X537809Y-6284D01*
X541619Y-6284D02*
X542889Y-7554D01*
X541619Y-29144D02*
X537809Y-29144D01*
X541619Y-29144D02*
X542889Y-27874D01*
X591149Y-7554D02*
X592419Y-6284D01*
X591149Y-7554D02*
X542889Y-7554D01*
X591149Y-27874D02*
X592419Y-29144D01*
X591149Y-27874D02*
X542889Y-27874D01*
X592419Y-6284D02*
X596229Y-6284D01*
X596229Y-29144D02*
X592419Y-29144D01*
D11*
X542254Y-3109D02*
X542254Y8321D01*
X545429Y8321D01*
X545540Y8319D01*
X545650Y8313D01*
X545761Y8304D01*
X545871Y8290D01*
X545980Y8273D01*
X546089Y8252D01*
X546197Y8227D01*
X546304Y8198D01*
X546410Y8166D01*
X546515Y8130D01*
X546618Y8090D01*
X546720Y8047D01*
X546821Y8000D01*
X546920Y7949D01*
X547017Y7896D01*
X547111Y7839D01*
X547204Y7778D01*
X547295Y7715D01*
X547384Y7648D01*
X547470Y7578D01*
X547553Y7505D01*
X547635Y7430D01*
X547713Y7352D01*
X547788Y7270D01*
X547861Y7187D01*
X547931Y7101D01*
X547998Y7012D01*
X548061Y6921D01*
X548122Y6828D01*
X548179Y6734D01*
X548232Y6637D01*
X548283Y6538D01*
X548330Y6437D01*
X548373Y6335D01*
X548413Y6232D01*
X548449Y6127D01*
X548481Y6021D01*
X548510Y5914D01*
X548535Y5806D01*
X548556Y5697D01*
X548573Y5588D01*
X548587Y5478D01*
X548596Y5367D01*
X548602Y5257D01*
X548604Y5146D01*
X548604Y66D01*
X548602Y-45D01*
X548596Y-155D01*
X548587Y-266D01*
X548573Y-376D01*
X548556Y-485D01*
X548535Y-594D01*
X548510Y-702D01*
X548481Y-809D01*
X548449Y-915D01*
X548413Y-1020D01*
X548373Y-1123D01*
X548330Y-1225D01*
X548283Y-1326D01*
X548232Y-1425D01*
X548179Y-1522D01*
X548122Y-1616D01*
X548061Y-1709D01*
X547998Y-1800D01*
X547931Y-1889D01*
X547861Y-1975D01*
X547788Y-2058D01*
X547713Y-2140D01*
X547635Y-2218D01*
X547553Y-2293D01*
X547470Y-2366D01*
X547384Y-2436D01*
X547295Y-2503D01*
X547204Y-2566D01*
X547111Y-2627D01*
X547017Y-2684D01*
X546920Y-2737D01*
X546821Y-2788D01*
X546720Y-2835D01*
X546618Y-2878D01*
X546515Y-2918D01*
X546410Y-2954D01*
X546304Y-2986D01*
X546197Y-3015D01*
X546089Y-3040D01*
X545980Y-3061D01*
X545871Y-3078D01*
X545761Y-3092D01*
X545650Y-3101D01*
X545540Y-3107D01*
X545429Y-3109D01*
X542254Y-3109D01*
X556605Y1971D02*
X560415Y1971D01*
X556605Y1971D02*
X556505Y1973D01*
X556406Y1979D01*
X556306Y1989D01*
X556208Y2002D01*
X556109Y2020D01*
X556012Y2041D01*
X555916Y2066D01*
X555820Y2095D01*
X555726Y2128D01*
X555633Y2164D01*
X555542Y2204D01*
X555452Y2248D01*
X555364Y2295D01*
X555278Y2345D01*
X555194Y2399D01*
X555112Y2456D01*
X555033Y2516D01*
X554955Y2580D01*
X554881Y2646D01*
X554809Y2715D01*
X554740Y2787D01*
X554674Y2861D01*
X554610Y2939D01*
X554550Y3018D01*
X554493Y3100D01*
X554439Y3184D01*
X554389Y3270D01*
X554342Y3358D01*
X554298Y3448D01*
X554258Y3539D01*
X554222Y3632D01*
X554189Y3726D01*
X554160Y3822D01*
X554135Y3918D01*
X554114Y4015D01*
X554096Y4114D01*
X554083Y4212D01*
X554073Y4312D01*
X554067Y4411D01*
X554065Y4511D01*
X554065Y5146D01*
X554067Y5257D01*
X554073Y5367D01*
X554082Y5478D01*
X554096Y5588D01*
X554113Y5697D01*
X554134Y5806D01*
X554159Y5914D01*
X554188Y6021D01*
X554220Y6127D01*
X554256Y6232D01*
X554296Y6335D01*
X554339Y6437D01*
X554386Y6538D01*
X554437Y6637D01*
X554490Y6733D01*
X554547Y6828D01*
X554608Y6921D01*
X554671Y7012D01*
X554738Y7101D01*
X554808Y7187D01*
X554881Y7270D01*
X554956Y7352D01*
X555034Y7430D01*
X555116Y7505D01*
X555199Y7578D01*
X555285Y7648D01*
X555374Y7715D01*
X555465Y7778D01*
X555558Y7839D01*
X555653Y7896D01*
X555749Y7949D01*
X555848Y8000D01*
X555949Y8047D01*
X556051Y8090D01*
X556154Y8130D01*
X556259Y8166D01*
X556365Y8198D01*
X556472Y8227D01*
X556580Y8252D01*
X556689Y8273D01*
X556798Y8290D01*
X556908Y8304D01*
X557019Y8313D01*
X557129Y8319D01*
X557240Y8321D01*
X557351Y8319D01*
X557461Y8313D01*
X557572Y8304D01*
X557682Y8290D01*
X557791Y8273D01*
X557900Y8252D01*
X558008Y8227D01*
X558115Y8198D01*
X558221Y8166D01*
X558326Y8130D01*
X558429Y8090D01*
X558531Y8047D01*
X558632Y8000D01*
X558731Y7949D01*
X558828Y7896D01*
X558922Y7839D01*
X559015Y7778D01*
X559106Y7715D01*
X559195Y7648D01*
X559281Y7578D01*
X559364Y7505D01*
X559446Y7430D01*
X559524Y7352D01*
X559599Y7270D01*
X559672Y7187D01*
X559742Y7101D01*
X559809Y7012D01*
X559872Y6921D01*
X559933Y6828D01*
X559990Y6734D01*
X560043Y6637D01*
X560094Y6538D01*
X560141Y6437D01*
X560184Y6335D01*
X560224Y6232D01*
X560260Y6127D01*
X560292Y6021D01*
X560321Y5914D01*
X560346Y5806D01*
X560367Y5697D01*
X560384Y5588D01*
X560398Y5478D01*
X560407Y5367D01*
X560413Y5257D01*
X560415Y5146D01*
X560415Y1971D01*
X560413Y1831D01*
X560407Y1691D01*
X560398Y1551D01*
X560384Y1412D01*
X560367Y1273D01*
X560346Y1135D01*
X560321Y997D01*
X560292Y860D01*
X560260Y724D01*
X560223Y589D01*
X560183Y455D01*
X560140Y322D01*
X560092Y190D01*
X560042Y59D01*
X559987Y-70D01*
X559929Y-197D01*
X559868Y-323D01*
X559803Y-447D01*
X559734Y-569D01*
X559663Y-689D01*
X559588Y-807D01*
X559510Y-924D01*
X559428Y-1038D01*
X559344Y-1149D01*
X559256Y-1258D01*
X559166Y-1365D01*
X559072Y-1470D01*
X558976Y-1571D01*
X558877Y-1670D01*
X558776Y-1766D01*
X558671Y-1860D01*
X558564Y-1950D01*
X558455Y-2038D01*
X558344Y-2122D01*
X558230Y-2204D01*
X558113Y-2282D01*
X557995Y-2357D01*
X557875Y-2428D01*
X557753Y-2497D01*
X557629Y-2562D01*
X557503Y-2623D01*
X557376Y-2681D01*
X557247Y-2736D01*
X557116Y-2786D01*
X556984Y-2834D01*
X556851Y-2877D01*
X556717Y-2917D01*
X556582Y-2954D01*
X556446Y-2986D01*
X556309Y-3015D01*
X556171Y-3040D01*
X556033Y-3061D01*
X555894Y-3078D01*
X555755Y-3092D01*
X555615Y-3101D01*
X555475Y-3107D01*
X555335Y-3109D01*
D10*
X356434Y116520D02*
X343734Y116520D01*
X337384Y122870D01*
X337384Y135570D01*
X343734Y141920D01*
X362784Y135570D02*
X362784Y122870D01*
X356434Y116520D01*
X362784Y135570D02*
X356434Y141920D01*
X343734Y141920D01*
X337384Y122870D02*
X331034Y116520D01*
X318334Y116520D01*
X311984Y122870D01*
X311984Y135570D01*
X318334Y141920D01*
X331034Y141920D01*
X337384Y135570D01*
D11*
X325725Y110297D02*
X325725Y98867D01*
X325725Y110297D02*
X330805Y110297D01*
X330805Y105217D02*
X325725Y105217D01*
X335688Y110297D02*
X335688Y98867D01*
X335688Y110297D02*
X338863Y110297D01*
X338974Y110295D01*
X339084Y110289D01*
X339195Y110280D01*
X339305Y110266D01*
X339414Y110249D01*
X339523Y110228D01*
X339631Y110203D01*
X339738Y110174D01*
X339844Y110142D01*
X339949Y110106D01*
X340052Y110066D01*
X340154Y110023D01*
X340255Y109976D01*
X340354Y109925D01*
X340451Y109872D01*
X340545Y109815D01*
X340638Y109754D01*
X340729Y109691D01*
X340818Y109624D01*
X340904Y109554D01*
X340987Y109481D01*
X341069Y109406D01*
X341147Y109328D01*
X341222Y109246D01*
X341295Y109163D01*
X341365Y109077D01*
X341432Y108988D01*
X341495Y108897D01*
X341556Y108804D01*
X341613Y108709D01*
X341666Y108613D01*
X341717Y108514D01*
X341764Y108413D01*
X341807Y108311D01*
X341847Y108208D01*
X341883Y108103D01*
X341915Y107997D01*
X341944Y107890D01*
X341969Y107782D01*
X341990Y107673D01*
X342007Y107564D01*
X342021Y107454D01*
X342030Y107343D01*
X342036Y107233D01*
X342038Y107122D01*
X342036Y107011D01*
X342030Y106901D01*
X342021Y106790D01*
X342007Y106680D01*
X341990Y106571D01*
X341969Y106462D01*
X341944Y106354D01*
X341915Y106247D01*
X341883Y106141D01*
X341847Y106036D01*
X341807Y105933D01*
X341764Y105831D01*
X341717Y105730D01*
X341666Y105631D01*
X341613Y105534D01*
X341556Y105440D01*
X341495Y105347D01*
X341432Y105256D01*
X341365Y105167D01*
X341295Y105081D01*
X341222Y104998D01*
X341147Y104916D01*
X341069Y104838D01*
X340987Y104763D01*
X340904Y104690D01*
X340818Y104620D01*
X340729Y104553D01*
X340638Y104490D01*
X340545Y104429D01*
X340451Y104372D01*
X340354Y104319D01*
X340255Y104268D01*
X340154Y104221D01*
X340052Y104178D01*
X339949Y104138D01*
X339844Y104102D01*
X339738Y104070D01*
X339631Y104041D01*
X339523Y104016D01*
X339414Y103995D01*
X339305Y103978D01*
X339195Y103964D01*
X339084Y103955D01*
X338974Y103949D01*
X338863Y103947D01*
X335688Y103947D01*
X339498Y103947D02*
X342038Y98867D01*
X347442Y98867D02*
X352522Y98867D01*
X347442Y98867D02*
X347442Y110297D01*
X352522Y110297D01*
X351252Y105217D02*
X347442Y105217D01*
X360371Y98867D02*
X360471Y98869D01*
X360570Y98875D01*
X360670Y98885D01*
X360768Y98898D01*
X360867Y98916D01*
X360964Y98937D01*
X361060Y98962D01*
X361156Y98991D01*
X361250Y99024D01*
X361343Y99060D01*
X361434Y99100D01*
X361524Y99144D01*
X361612Y99191D01*
X361698Y99241D01*
X361782Y99295D01*
X361864Y99352D01*
X361943Y99412D01*
X362021Y99476D01*
X362095Y99542D01*
X362167Y99611D01*
X362236Y99683D01*
X362302Y99757D01*
X362366Y99835D01*
X362426Y99914D01*
X362483Y99996D01*
X362537Y100080D01*
X362587Y100166D01*
X362634Y100254D01*
X362678Y100344D01*
X362718Y100435D01*
X362754Y100528D01*
X362787Y100622D01*
X362816Y100718D01*
X362841Y100814D01*
X362862Y100911D01*
X362880Y101010D01*
X362893Y101108D01*
X362903Y101208D01*
X362909Y101307D01*
X362911Y101407D01*
X360371Y98867D02*
X360230Y98869D01*
X360089Y98874D01*
X359948Y98884D01*
X359807Y98897D01*
X359667Y98913D01*
X359527Y98934D01*
X359388Y98958D01*
X359249Y98986D01*
X359112Y99017D01*
X358975Y99052D01*
X358839Y99090D01*
X358704Y99132D01*
X358571Y99178D01*
X358438Y99227D01*
X358307Y99280D01*
X358178Y99336D01*
X358049Y99395D01*
X357923Y99458D01*
X357798Y99524D01*
X357675Y99593D01*
X357554Y99666D01*
X357435Y99742D01*
X357317Y99821D01*
X357202Y99902D01*
X357090Y99987D01*
X356979Y100075D01*
X356871Y100166D01*
X356765Y100259D01*
X356662Y100356D01*
X356561Y100455D01*
X356878Y107757D02*
X356880Y107857D01*
X356886Y107956D01*
X356896Y108056D01*
X356909Y108154D01*
X356927Y108253D01*
X356948Y108350D01*
X356973Y108446D01*
X357002Y108542D01*
X357035Y108636D01*
X357071Y108729D01*
X357111Y108820D01*
X357155Y108910D01*
X357202Y108998D01*
X357252Y109084D01*
X357306Y109168D01*
X357363Y109250D01*
X357423Y109329D01*
X357487Y109407D01*
X357553Y109481D01*
X357622Y109553D01*
X357694Y109622D01*
X357768Y109688D01*
X357846Y109752D01*
X357925Y109812D01*
X358007Y109869D01*
X358091Y109923D01*
X358177Y109973D01*
X358265Y110020D01*
X358355Y110064D01*
X358446Y110104D01*
X358539Y110140D01*
X358633Y110173D01*
X358729Y110202D01*
X358825Y110227D01*
X358922Y110248D01*
X359021Y110266D01*
X359119Y110279D01*
X359219Y110289D01*
X359318Y110295D01*
X359418Y110297D01*
X359551Y110295D01*
X359684Y110290D01*
X359817Y110280D01*
X359950Y110267D01*
X360082Y110250D01*
X360214Y110230D01*
X360345Y110206D01*
X360475Y110178D01*
X360605Y110147D01*
X360733Y110112D01*
X360861Y110073D01*
X360987Y110031D01*
X361112Y109985D01*
X361236Y109936D01*
X361359Y109884D01*
X361480Y109828D01*
X361599Y109768D01*
X361717Y109706D01*
X361832Y109640D01*
X361946Y109571D01*
X362058Y109498D01*
X362168Y109423D01*
X362276Y109344D01*
X358148Y105534D02*
X358064Y105586D01*
X357981Y105641D01*
X357901Y105700D01*
X357823Y105761D01*
X357748Y105825D01*
X357675Y105893D01*
X357604Y105963D01*
X357537Y106035D01*
X357472Y106110D01*
X357410Y106188D01*
X357351Y106268D01*
X357295Y106350D01*
X357243Y106434D01*
X357194Y106520D01*
X357148Y106608D01*
X357105Y106698D01*
X357066Y106789D01*
X357031Y106882D01*
X356999Y106976D01*
X356971Y107071D01*
X356946Y107167D01*
X356926Y107264D01*
X356908Y107362D01*
X356895Y107460D01*
X356886Y107559D01*
X356880Y107658D01*
X356878Y107757D01*
X361641Y103630D02*
X361725Y103578D01*
X361808Y103523D01*
X361888Y103464D01*
X361966Y103403D01*
X362041Y103339D01*
X362114Y103271D01*
X362185Y103201D01*
X362252Y103129D01*
X362317Y103054D01*
X362379Y102976D01*
X362438Y102896D01*
X362494Y102814D01*
X362546Y102730D01*
X362595Y102644D01*
X362641Y102556D01*
X362684Y102466D01*
X362723Y102375D01*
X362758Y102282D01*
X362790Y102188D01*
X362818Y102093D01*
X362843Y101997D01*
X362863Y101900D01*
X362881Y101802D01*
X362894Y101704D01*
X362903Y101605D01*
X362909Y101506D01*
X362911Y101407D01*
X361641Y103629D02*
X358148Y105534D01*
D10*
X367785Y96932D02*
X367685Y96930D01*
X367586Y96924D01*
X367486Y96914D01*
X367388Y96901D01*
X367289Y96883D01*
X367192Y96862D01*
X367096Y96837D01*
X367000Y96808D01*
X366906Y96775D01*
X366813Y96739D01*
X366722Y96699D01*
X366632Y96655D01*
X366544Y96608D01*
X366458Y96558D01*
X366374Y96504D01*
X366292Y96447D01*
X366213Y96387D01*
X366135Y96323D01*
X366061Y96257D01*
X365989Y96188D01*
X365920Y96116D01*
X365854Y96042D01*
X365790Y95964D01*
X365730Y95885D01*
X365673Y95803D01*
X365619Y95719D01*
X365569Y95633D01*
X365522Y95545D01*
X365478Y95455D01*
X365438Y95364D01*
X365402Y95271D01*
X365369Y95177D01*
X365340Y95081D01*
X365315Y94985D01*
X365294Y94888D01*
X365276Y94789D01*
X365263Y94691D01*
X365253Y94591D01*
X365247Y94492D01*
X365245Y94392D01*
X365245Y76612D02*
X365247Y76512D01*
X365253Y76413D01*
X365263Y76313D01*
X365276Y76215D01*
X365294Y76116D01*
X365315Y76019D01*
X365340Y75923D01*
X365369Y75827D01*
X365402Y75733D01*
X365438Y75640D01*
X365478Y75549D01*
X365522Y75459D01*
X365569Y75371D01*
X365619Y75285D01*
X365673Y75201D01*
X365730Y75119D01*
X365790Y75040D01*
X365854Y74962D01*
X365920Y74888D01*
X365989Y74816D01*
X366061Y74747D01*
X366135Y74681D01*
X366213Y74617D01*
X366292Y74557D01*
X366374Y74500D01*
X366458Y74446D01*
X366544Y74396D01*
X366632Y74349D01*
X366722Y74305D01*
X366813Y74265D01*
X366906Y74229D01*
X367000Y74196D01*
X367096Y74167D01*
X367192Y74142D01*
X367289Y74121D01*
X367388Y74103D01*
X367486Y74090D01*
X367586Y74080D01*
X367685Y74074D01*
X367785Y74072D01*
X426205Y74072D02*
X426305Y74074D01*
X426404Y74080D01*
X426504Y74090D01*
X426602Y74103D01*
X426701Y74121D01*
X426798Y74142D01*
X426894Y74167D01*
X426990Y74196D01*
X427084Y74229D01*
X427177Y74265D01*
X427268Y74305D01*
X427358Y74349D01*
X427446Y74396D01*
X427532Y74446D01*
X427616Y74500D01*
X427698Y74557D01*
X427777Y74617D01*
X427855Y74681D01*
X427929Y74747D01*
X428001Y74816D01*
X428070Y74888D01*
X428136Y74962D01*
X428200Y75040D01*
X428260Y75119D01*
X428317Y75201D01*
X428371Y75285D01*
X428421Y75371D01*
X428468Y75459D01*
X428512Y75549D01*
X428552Y75640D01*
X428588Y75733D01*
X428621Y75827D01*
X428650Y75923D01*
X428675Y76019D01*
X428696Y76116D01*
X428714Y76215D01*
X428727Y76313D01*
X428737Y76413D01*
X428743Y76512D01*
X428745Y76612D01*
X428745Y94392D02*
X428743Y94492D01*
X428737Y94591D01*
X428727Y94691D01*
X428714Y94789D01*
X428696Y94888D01*
X428675Y94985D01*
X428650Y95081D01*
X428621Y95177D01*
X428588Y95271D01*
X428552Y95364D01*
X428512Y95455D01*
X428468Y95545D01*
X428421Y95633D01*
X428371Y95719D01*
X428317Y95803D01*
X428260Y95885D01*
X428200Y95964D01*
X428136Y96042D01*
X428070Y96116D01*
X428001Y96188D01*
X427929Y96257D01*
X427855Y96323D01*
X427777Y96387D01*
X427698Y96447D01*
X427616Y96504D01*
X427532Y96558D01*
X427446Y96608D01*
X427358Y96655D01*
X427268Y96699D01*
X427177Y96739D01*
X427084Y96775D01*
X426990Y96808D01*
X426894Y96837D01*
X426798Y96862D01*
X426701Y96883D01*
X426602Y96901D01*
X426504Y96914D01*
X426404Y96924D01*
X426305Y96930D01*
X426205Y96932D01*
X371595Y96932D02*
X367785Y96932D01*
X371595Y96932D02*
X372865Y95662D01*
X371595Y74072D02*
X367785Y74072D01*
X371595Y74072D02*
X372865Y75342D01*
X421125Y95662D02*
X422395Y96932D01*
X421125Y95662D02*
X372865Y95662D01*
X421125Y75342D02*
X422395Y74072D01*
X421125Y75342D02*
X372865Y75342D01*
X422395Y96932D02*
X426205Y96932D01*
X426205Y74072D02*
X422395Y74072D01*
D11*
X372230Y100107D02*
X372230Y111537D01*
X372230Y100107D02*
X377310Y100107D01*
X382111Y100107D02*
X382111Y111537D01*
X385286Y111537D01*
X385397Y111535D01*
X385507Y111529D01*
X385618Y111520D01*
X385728Y111506D01*
X385837Y111489D01*
X385946Y111468D01*
X386054Y111443D01*
X386161Y111414D01*
X386267Y111382D01*
X386372Y111346D01*
X386475Y111306D01*
X386577Y111263D01*
X386678Y111216D01*
X386777Y111165D01*
X386874Y111112D01*
X386968Y111055D01*
X387061Y110994D01*
X387152Y110931D01*
X387241Y110864D01*
X387327Y110794D01*
X387410Y110721D01*
X387492Y110646D01*
X387570Y110568D01*
X387645Y110486D01*
X387718Y110403D01*
X387788Y110317D01*
X387855Y110228D01*
X387918Y110137D01*
X387979Y110044D01*
X388036Y109950D01*
X388089Y109853D01*
X388140Y109754D01*
X388187Y109653D01*
X388230Y109551D01*
X388270Y109448D01*
X388306Y109343D01*
X388338Y109237D01*
X388367Y109130D01*
X388392Y109022D01*
X388413Y108913D01*
X388430Y108804D01*
X388444Y108694D01*
X388453Y108583D01*
X388459Y108473D01*
X388461Y108362D01*
X388461Y103282D01*
X388459Y103171D01*
X388453Y103061D01*
X388444Y102950D01*
X388430Y102840D01*
X388413Y102731D01*
X388392Y102622D01*
X388367Y102514D01*
X388338Y102407D01*
X388306Y102301D01*
X388270Y102196D01*
X388230Y102093D01*
X388187Y101991D01*
X388140Y101890D01*
X388089Y101791D01*
X388036Y101694D01*
X387979Y101600D01*
X387918Y101507D01*
X387855Y101416D01*
X387788Y101327D01*
X387718Y101241D01*
X387645Y101158D01*
X387570Y101076D01*
X387492Y100998D01*
X387410Y100923D01*
X387327Y100850D01*
X387241Y100780D01*
X387152Y100713D01*
X387061Y100650D01*
X386968Y100589D01*
X386874Y100532D01*
X386777Y100479D01*
X386678Y100428D01*
X386577Y100381D01*
X386475Y100338D01*
X386372Y100298D01*
X386267Y100262D01*
X386161Y100230D01*
X386054Y100201D01*
X385946Y100176D01*
X385837Y100155D01*
X385728Y100138D01*
X385618Y100124D01*
X385507Y100115D01*
X385397Y100109D01*
X385286Y100107D01*
X382111Y100107D01*
X394386Y100107D02*
X394386Y111537D01*
X397561Y111537D01*
X397672Y111535D01*
X397782Y111529D01*
X397893Y111520D01*
X398003Y111506D01*
X398112Y111489D01*
X398221Y111468D01*
X398329Y111443D01*
X398436Y111414D01*
X398542Y111382D01*
X398647Y111346D01*
X398750Y111306D01*
X398852Y111263D01*
X398953Y111216D01*
X399052Y111165D01*
X399149Y111112D01*
X399243Y111055D01*
X399336Y110994D01*
X399427Y110931D01*
X399516Y110864D01*
X399602Y110794D01*
X399685Y110721D01*
X399767Y110646D01*
X399845Y110568D01*
X399920Y110486D01*
X399993Y110403D01*
X400063Y110317D01*
X400130Y110228D01*
X400193Y110137D01*
X400254Y110044D01*
X400311Y109949D01*
X400364Y109853D01*
X400415Y109754D01*
X400462Y109653D01*
X400505Y109551D01*
X400545Y109448D01*
X400581Y109343D01*
X400613Y109237D01*
X400642Y109130D01*
X400667Y109022D01*
X400688Y108913D01*
X400705Y108804D01*
X400719Y108694D01*
X400728Y108583D01*
X400734Y108473D01*
X400736Y108362D01*
X400734Y108251D01*
X400728Y108141D01*
X400719Y108030D01*
X400705Y107920D01*
X400688Y107811D01*
X400667Y107702D01*
X400642Y107594D01*
X400613Y107487D01*
X400581Y107381D01*
X400545Y107276D01*
X400505Y107173D01*
X400462Y107071D01*
X400415Y106970D01*
X400364Y106871D01*
X400311Y106774D01*
X400254Y106680D01*
X400193Y106587D01*
X400130Y106496D01*
X400063Y106407D01*
X399993Y106321D01*
X399920Y106238D01*
X399845Y106156D01*
X399767Y106078D01*
X399685Y106003D01*
X399602Y105930D01*
X399516Y105860D01*
X399427Y105793D01*
X399336Y105730D01*
X399243Y105669D01*
X399149Y105612D01*
X399052Y105559D01*
X398953Y105508D01*
X398852Y105461D01*
X398750Y105418D01*
X398647Y105378D01*
X398542Y105342D01*
X398436Y105310D01*
X398329Y105281D01*
X398221Y105256D01*
X398112Y105235D01*
X398003Y105218D01*
X397893Y105204D01*
X397782Y105195D01*
X397672Y105189D01*
X397561Y105187D01*
X394386Y105187D01*
X398196Y105187D02*
X400736Y100107D01*
D10*
X653710Y44236D02*
X660060Y37886D01*
X653710Y44236D02*
X653710Y56936D01*
X660060Y63286D01*
X672760Y63286D01*
X679110Y56936D01*
X679110Y44236D01*
X672760Y37886D01*
X653710Y6136D02*
X653710Y-6564D01*
X653710Y6136D02*
X660060Y12486D01*
X672760Y12486D01*
X679110Y6136D01*
X660060Y12486D02*
X653710Y18836D01*
X653710Y31536D01*
X660060Y37886D01*
X672760Y37886D01*
X679110Y31536D01*
X679110Y18836D01*
X672760Y12486D01*
X672760Y-12914D02*
X660060Y-12914D01*
X653710Y-6564D01*
X672760Y-12914D02*
X679110Y-6564D01*
X679110Y6136D01*
X653710Y69636D02*
X653710Y82336D01*
X660060Y88686D01*
X672760Y88686D01*
X679110Y82336D01*
X660060Y63286D02*
X653710Y69636D01*
X672760Y63286D02*
X679110Y69636D01*
X679110Y82336D01*
D11*
X647487Y-13041D02*
X636057Y-13041D01*
X647487Y-13041D02*
X647487Y-7961D01*
X647487Y-3135D02*
X647487Y1945D01*
X647487Y-3135D02*
X636057Y-3135D01*
X636057Y1945D01*
X641137Y675D02*
X641137Y-3135D01*
X636057Y6745D02*
X647487Y6745D01*
X636057Y6745D02*
X636057Y9920D01*
X636059Y10031D01*
X636065Y10141D01*
X636074Y10252D01*
X636088Y10362D01*
X636105Y10471D01*
X636126Y10580D01*
X636151Y10688D01*
X636180Y10795D01*
X636212Y10901D01*
X636248Y11006D01*
X636288Y11109D01*
X636331Y11211D01*
X636378Y11312D01*
X636429Y11411D01*
X636482Y11507D01*
X636539Y11602D01*
X636600Y11695D01*
X636663Y11786D01*
X636730Y11875D01*
X636800Y11961D01*
X636873Y12044D01*
X636948Y12126D01*
X637026Y12204D01*
X637108Y12279D01*
X637191Y12352D01*
X637277Y12422D01*
X637366Y12489D01*
X637457Y12552D01*
X637550Y12613D01*
X637645Y12670D01*
X637741Y12723D01*
X637840Y12774D01*
X637941Y12821D01*
X638043Y12864D01*
X638146Y12904D01*
X638251Y12940D01*
X638357Y12972D01*
X638464Y13001D01*
X638572Y13026D01*
X638681Y13047D01*
X638790Y13064D01*
X638900Y13078D01*
X639011Y13087D01*
X639121Y13093D01*
X639232Y13095D01*
X644312Y13095D01*
X644423Y13093D01*
X644533Y13087D01*
X644644Y13078D01*
X644754Y13064D01*
X644863Y13047D01*
X644972Y13026D01*
X645080Y13001D01*
X645187Y12972D01*
X645293Y12940D01*
X645398Y12904D01*
X645501Y12864D01*
X645603Y12821D01*
X645704Y12774D01*
X645803Y12723D01*
X645900Y12670D01*
X645994Y12613D01*
X646087Y12552D01*
X646178Y12489D01*
X646267Y12422D01*
X646353Y12352D01*
X646436Y12279D01*
X646518Y12204D01*
X646596Y12126D01*
X646671Y12044D01*
X646744Y11961D01*
X646814Y11875D01*
X646881Y11786D01*
X646944Y11695D01*
X647005Y11602D01*
X647062Y11508D01*
X647115Y11411D01*
X647166Y11312D01*
X647213Y11211D01*
X647256Y11109D01*
X647296Y11006D01*
X647332Y10901D01*
X647364Y10795D01*
X647393Y10688D01*
X647418Y10580D01*
X647439Y10471D01*
X647456Y10362D01*
X647470Y10252D01*
X647479Y10141D01*
X647485Y10031D01*
X647487Y9920D01*
X647487Y6745D01*
D10*
X69280Y-10857D02*
X69280Y-23557D01*
X69280Y-10857D02*
X75630Y-4507D01*
X88330Y-4507D01*
X94680Y-10857D01*
X88330Y-29907D02*
X75630Y-29907D01*
X69280Y-23557D01*
X88330Y-29907D02*
X94680Y-23557D01*
X94680Y-10857D01*
X75630Y-4507D02*
X69280Y1843D01*
X69280Y14543D01*
X75630Y20893D01*
X88330Y20893D01*
X94680Y14543D01*
X94680Y1843D01*
X88330Y-4507D01*
D11*
X63057Y-30034D02*
X51627Y-30034D01*
X51627Y-26859D01*
X51629Y-26748D01*
X51635Y-26638D01*
X51644Y-26527D01*
X51658Y-26417D01*
X51675Y-26308D01*
X51696Y-26199D01*
X51721Y-26091D01*
X51750Y-25984D01*
X51782Y-25878D01*
X51818Y-25773D01*
X51858Y-25670D01*
X51901Y-25568D01*
X51948Y-25467D01*
X51999Y-25368D01*
X52052Y-25272D01*
X52109Y-25177D01*
X52170Y-25084D01*
X52233Y-24993D01*
X52300Y-24904D01*
X52370Y-24818D01*
X52443Y-24735D01*
X52518Y-24653D01*
X52596Y-24575D01*
X52678Y-24500D01*
X52761Y-24427D01*
X52847Y-24357D01*
X52936Y-24290D01*
X53027Y-24227D01*
X53120Y-24166D01*
X53214Y-24109D01*
X53311Y-24056D01*
X53410Y-24005D01*
X53511Y-23958D01*
X53613Y-23915D01*
X53716Y-23875D01*
X53821Y-23839D01*
X53927Y-23807D01*
X54034Y-23778D01*
X54142Y-23753D01*
X54251Y-23732D01*
X54360Y-23715D01*
X54470Y-23701D01*
X54581Y-23692D01*
X54691Y-23686D01*
X54802Y-23684D01*
X54913Y-23686D01*
X55023Y-23692D01*
X55134Y-23701D01*
X55244Y-23715D01*
X55353Y-23732D01*
X55462Y-23753D01*
X55570Y-23778D01*
X55677Y-23807D01*
X55783Y-23839D01*
X55888Y-23875D01*
X55991Y-23915D01*
X56093Y-23958D01*
X56194Y-24005D01*
X56293Y-24056D01*
X56390Y-24109D01*
X56484Y-24166D01*
X56577Y-24227D01*
X56668Y-24290D01*
X56757Y-24357D01*
X56843Y-24427D01*
X56926Y-24500D01*
X57008Y-24575D01*
X57086Y-24653D01*
X57161Y-24735D01*
X57234Y-24818D01*
X57304Y-24904D01*
X57371Y-24993D01*
X57434Y-25084D01*
X57495Y-25177D01*
X57552Y-25272D01*
X57605Y-25368D01*
X57656Y-25467D01*
X57703Y-25568D01*
X57746Y-25670D01*
X57786Y-25773D01*
X57822Y-25878D01*
X57854Y-25984D01*
X57883Y-26091D01*
X57908Y-26199D01*
X57929Y-26308D01*
X57946Y-26417D01*
X57960Y-26527D01*
X57969Y-26638D01*
X57975Y-26748D01*
X57977Y-26859D01*
X57977Y-30034D01*
X56707Y-18604D02*
X56707Y-15429D01*
X56709Y-15318D01*
X56715Y-15208D01*
X56724Y-15097D01*
X56738Y-14987D01*
X56755Y-14878D01*
X56776Y-14769D01*
X56801Y-14661D01*
X56830Y-14554D01*
X56862Y-14448D01*
X56898Y-14343D01*
X56938Y-14240D01*
X56981Y-14138D01*
X57028Y-14037D01*
X57079Y-13938D01*
X57132Y-13842D01*
X57189Y-13747D01*
X57250Y-13654D01*
X57313Y-13563D01*
X57380Y-13474D01*
X57450Y-13388D01*
X57523Y-13305D01*
X57598Y-13223D01*
X57676Y-13145D01*
X57758Y-13070D01*
X57841Y-12997D01*
X57927Y-12927D01*
X58016Y-12860D01*
X58107Y-12797D01*
X58200Y-12736D01*
X58294Y-12679D01*
X58391Y-12626D01*
X58490Y-12575D01*
X58591Y-12528D01*
X58693Y-12485D01*
X58796Y-12445D01*
X58901Y-12409D01*
X59007Y-12377D01*
X59114Y-12348D01*
X59222Y-12323D01*
X59331Y-12302D01*
X59440Y-12285D01*
X59550Y-12271D01*
X59661Y-12262D01*
X59771Y-12256D01*
X59882Y-12254D01*
X59993Y-12256D01*
X60103Y-12262D01*
X60214Y-12271D01*
X60324Y-12285D01*
X60433Y-12302D01*
X60542Y-12323D01*
X60650Y-12348D01*
X60757Y-12377D01*
X60863Y-12409D01*
X60968Y-12445D01*
X61071Y-12485D01*
X61173Y-12528D01*
X61274Y-12575D01*
X61373Y-12626D01*
X61470Y-12679D01*
X61564Y-12736D01*
X61657Y-12797D01*
X61748Y-12860D01*
X61837Y-12927D01*
X61923Y-12997D01*
X62006Y-13070D01*
X62088Y-13145D01*
X62166Y-13223D01*
X62241Y-13305D01*
X62314Y-13388D01*
X62384Y-13474D01*
X62451Y-13563D01*
X62514Y-13654D01*
X62575Y-13747D01*
X62632Y-13842D01*
X62685Y-13938D01*
X62736Y-14037D01*
X62783Y-14138D01*
X62826Y-14240D01*
X62866Y-14343D01*
X62902Y-14448D01*
X62934Y-14554D01*
X62963Y-14661D01*
X62988Y-14769D01*
X63009Y-14878D01*
X63026Y-14987D01*
X63040Y-15097D01*
X63049Y-15208D01*
X63055Y-15318D01*
X63057Y-15429D01*
X63057Y-18604D01*
X51627Y-18604D01*
X51627Y-15429D01*
X51629Y-15329D01*
X51635Y-15230D01*
X51645Y-15130D01*
X51658Y-15032D01*
X51676Y-14933D01*
X51697Y-14836D01*
X51722Y-14740D01*
X51751Y-14644D01*
X51784Y-14550D01*
X51820Y-14457D01*
X51860Y-14366D01*
X51904Y-14276D01*
X51951Y-14188D01*
X52001Y-14102D01*
X52055Y-14018D01*
X52112Y-13936D01*
X52172Y-13857D01*
X52236Y-13779D01*
X52302Y-13705D01*
X52371Y-13633D01*
X52443Y-13564D01*
X52517Y-13498D01*
X52595Y-13434D01*
X52674Y-13374D01*
X52756Y-13317D01*
X52840Y-13263D01*
X52926Y-13213D01*
X53014Y-13166D01*
X53104Y-13122D01*
X53195Y-13082D01*
X53288Y-13046D01*
X53382Y-13013D01*
X53478Y-12984D01*
X53574Y-12959D01*
X53671Y-12938D01*
X53770Y-12920D01*
X53868Y-12907D01*
X53968Y-12897D01*
X54067Y-12891D01*
X54167Y-12889D01*
X54267Y-12891D01*
X54366Y-12897D01*
X54466Y-12907D01*
X54564Y-12920D01*
X54663Y-12938D01*
X54760Y-12959D01*
X54856Y-12984D01*
X54952Y-13013D01*
X55046Y-13046D01*
X55139Y-13082D01*
X55230Y-13122D01*
X55320Y-13166D01*
X55408Y-13213D01*
X55494Y-13263D01*
X55578Y-13317D01*
X55660Y-13374D01*
X55739Y-13434D01*
X55817Y-13498D01*
X55891Y-13564D01*
X55963Y-13633D01*
X56032Y-13705D01*
X56098Y-13779D01*
X56162Y-13857D01*
X56222Y-13936D01*
X56279Y-14018D01*
X56333Y-14102D01*
X56383Y-14188D01*
X56430Y-14276D01*
X56474Y-14366D01*
X56514Y-14457D01*
X56550Y-14550D01*
X56583Y-14644D01*
X56612Y-14740D01*
X56637Y-14836D01*
X56658Y-14933D01*
X56676Y-15032D01*
X56689Y-15130D01*
X56699Y-15230D01*
X56705Y-15329D01*
X56707Y-15429D01*
X54167Y-7746D02*
X51627Y-4571D01*
X63057Y-4571D01*
X63057Y-7746D02*
X63057Y-1396D01*
D10*
X69360Y93585D02*
X69360Y106285D01*
X75710Y112635D01*
X88410Y112635D01*
X94760Y106285D01*
X88410Y87235D02*
X75710Y87235D01*
X69360Y93585D01*
X88410Y87235D02*
X94760Y93585D01*
X94760Y106285D01*
X75710Y112635D02*
X69360Y118985D01*
X69360Y131685D01*
X75710Y138035D01*
X88410Y138035D01*
X94760Y131685D01*
X94760Y118985D01*
X88410Y112635D01*
D11*
X63137Y87108D02*
X51707Y87108D01*
X51707Y90283D01*
X51709Y90394D01*
X51715Y90504D01*
X51724Y90615D01*
X51738Y90725D01*
X51755Y90834D01*
X51776Y90943D01*
X51801Y91051D01*
X51830Y91158D01*
X51862Y91264D01*
X51898Y91369D01*
X51938Y91472D01*
X51981Y91574D01*
X52028Y91675D01*
X52079Y91774D01*
X52132Y91870D01*
X52189Y91965D01*
X52250Y92058D01*
X52313Y92149D01*
X52380Y92238D01*
X52450Y92324D01*
X52523Y92407D01*
X52598Y92489D01*
X52676Y92567D01*
X52758Y92642D01*
X52841Y92715D01*
X52927Y92785D01*
X53016Y92852D01*
X53107Y92915D01*
X53200Y92976D01*
X53294Y93033D01*
X53391Y93086D01*
X53490Y93137D01*
X53591Y93184D01*
X53693Y93227D01*
X53796Y93267D01*
X53901Y93303D01*
X54007Y93335D01*
X54114Y93364D01*
X54222Y93389D01*
X54331Y93410D01*
X54440Y93427D01*
X54550Y93441D01*
X54661Y93450D01*
X54771Y93456D01*
X54882Y93458D01*
X54993Y93456D01*
X55103Y93450D01*
X55214Y93441D01*
X55324Y93427D01*
X55433Y93410D01*
X55542Y93389D01*
X55650Y93364D01*
X55757Y93335D01*
X55863Y93303D01*
X55968Y93267D01*
X56071Y93227D01*
X56173Y93184D01*
X56274Y93137D01*
X56373Y93086D01*
X56470Y93033D01*
X56564Y92976D01*
X56657Y92915D01*
X56748Y92852D01*
X56837Y92785D01*
X56923Y92715D01*
X57006Y92642D01*
X57088Y92567D01*
X57166Y92489D01*
X57241Y92407D01*
X57314Y92324D01*
X57384Y92238D01*
X57451Y92149D01*
X57514Y92058D01*
X57575Y91965D01*
X57632Y91871D01*
X57685Y91774D01*
X57736Y91675D01*
X57783Y91574D01*
X57826Y91472D01*
X57866Y91369D01*
X57902Y91264D01*
X57934Y91158D01*
X57963Y91051D01*
X57988Y90943D01*
X58009Y90834D01*
X58026Y90725D01*
X58040Y90615D01*
X58049Y90504D01*
X58055Y90394D01*
X58057Y90283D01*
X58057Y87108D01*
X56787Y98538D02*
X56787Y101713D01*
X56789Y101824D01*
X56795Y101934D01*
X56804Y102045D01*
X56818Y102155D01*
X56835Y102264D01*
X56856Y102373D01*
X56881Y102481D01*
X56910Y102588D01*
X56942Y102694D01*
X56978Y102799D01*
X57018Y102902D01*
X57061Y103004D01*
X57108Y103105D01*
X57159Y103204D01*
X57212Y103300D01*
X57269Y103395D01*
X57330Y103488D01*
X57393Y103579D01*
X57460Y103668D01*
X57530Y103754D01*
X57603Y103837D01*
X57678Y103919D01*
X57756Y103997D01*
X57838Y104072D01*
X57921Y104145D01*
X58007Y104215D01*
X58096Y104282D01*
X58187Y104345D01*
X58280Y104406D01*
X58374Y104463D01*
X58471Y104516D01*
X58570Y104567D01*
X58671Y104614D01*
X58773Y104657D01*
X58876Y104697D01*
X58981Y104733D01*
X59087Y104765D01*
X59194Y104794D01*
X59302Y104819D01*
X59411Y104840D01*
X59520Y104857D01*
X59630Y104871D01*
X59741Y104880D01*
X59851Y104886D01*
X59962Y104888D01*
X60073Y104886D01*
X60183Y104880D01*
X60294Y104871D01*
X60404Y104857D01*
X60513Y104840D01*
X60622Y104819D01*
X60730Y104794D01*
X60837Y104765D01*
X60943Y104733D01*
X61048Y104697D01*
X61151Y104657D01*
X61253Y104614D01*
X61354Y104567D01*
X61453Y104516D01*
X61550Y104463D01*
X61644Y104406D01*
X61737Y104345D01*
X61828Y104282D01*
X61917Y104215D01*
X62003Y104145D01*
X62086Y104072D01*
X62168Y103997D01*
X62246Y103919D01*
X62321Y103837D01*
X62394Y103754D01*
X62464Y103668D01*
X62531Y103579D01*
X62594Y103488D01*
X62655Y103395D01*
X62712Y103301D01*
X62765Y103204D01*
X62816Y103105D01*
X62863Y103004D01*
X62906Y102902D01*
X62946Y102799D01*
X62982Y102694D01*
X63014Y102588D01*
X63043Y102481D01*
X63068Y102373D01*
X63089Y102264D01*
X63106Y102155D01*
X63120Y102045D01*
X63129Y101934D01*
X63135Y101824D01*
X63137Y101713D01*
X63137Y98538D01*
X51707Y98538D01*
X51707Y101713D01*
X51709Y101813D01*
X51715Y101912D01*
X51725Y102012D01*
X51738Y102110D01*
X51756Y102209D01*
X51777Y102306D01*
X51802Y102402D01*
X51831Y102498D01*
X51864Y102592D01*
X51900Y102685D01*
X51940Y102776D01*
X51984Y102866D01*
X52031Y102954D01*
X52081Y103040D01*
X52135Y103124D01*
X52192Y103206D01*
X52252Y103285D01*
X52316Y103363D01*
X52382Y103437D01*
X52451Y103509D01*
X52523Y103578D01*
X52597Y103644D01*
X52675Y103708D01*
X52754Y103768D01*
X52836Y103825D01*
X52920Y103879D01*
X53006Y103929D01*
X53094Y103976D01*
X53184Y104020D01*
X53275Y104060D01*
X53368Y104096D01*
X53462Y104129D01*
X53558Y104158D01*
X53654Y104183D01*
X53751Y104204D01*
X53850Y104222D01*
X53948Y104235D01*
X54048Y104245D01*
X54147Y104251D01*
X54247Y104253D01*
X54347Y104251D01*
X54446Y104245D01*
X54546Y104235D01*
X54644Y104222D01*
X54743Y104204D01*
X54840Y104183D01*
X54936Y104158D01*
X55032Y104129D01*
X55126Y104096D01*
X55219Y104060D01*
X55310Y104020D01*
X55400Y103976D01*
X55488Y103929D01*
X55574Y103879D01*
X55658Y103825D01*
X55740Y103768D01*
X55819Y103708D01*
X55897Y103644D01*
X55971Y103578D01*
X56043Y103509D01*
X56112Y103437D01*
X56178Y103363D01*
X56242Y103285D01*
X56302Y103206D01*
X56359Y103124D01*
X56413Y103040D01*
X56463Y102954D01*
X56510Y102866D01*
X56554Y102776D01*
X56594Y102685D01*
X56630Y102592D01*
X56663Y102498D01*
X56692Y102402D01*
X56717Y102306D01*
X56738Y102209D01*
X56756Y102110D01*
X56769Y102012D01*
X56779Y101912D01*
X56785Y101813D01*
X56787Y101713D01*
X51706Y112889D02*
X51708Y112993D01*
X51714Y113098D01*
X51723Y113202D01*
X51736Y113305D01*
X51754Y113408D01*
X51774Y113510D01*
X51799Y113612D01*
X51827Y113712D01*
X51859Y113812D01*
X51895Y113910D01*
X51934Y114007D01*
X51976Y114102D01*
X52022Y114196D01*
X52072Y114288D01*
X52124Y114378D01*
X52180Y114466D01*
X52240Y114552D01*
X52302Y114636D01*
X52367Y114717D01*
X52435Y114796D01*
X52507Y114873D01*
X52580Y114946D01*
X52657Y115018D01*
X52736Y115086D01*
X52817Y115151D01*
X52901Y115213D01*
X52987Y115273D01*
X53075Y115329D01*
X53165Y115381D01*
X53257Y115431D01*
X53351Y115477D01*
X53446Y115519D01*
X53543Y115558D01*
X53641Y115594D01*
X53741Y115626D01*
X53841Y115654D01*
X53943Y115679D01*
X54045Y115699D01*
X54148Y115717D01*
X54251Y115730D01*
X54355Y115739D01*
X54460Y115745D01*
X54564Y115747D01*
X51707Y112889D02*
X51709Y112771D01*
X51715Y112652D01*
X51724Y112534D01*
X51737Y112417D01*
X51755Y112300D01*
X51775Y112183D01*
X51800Y112067D01*
X51828Y111952D01*
X51861Y111839D01*
X51896Y111726D01*
X51936Y111614D01*
X51978Y111504D01*
X52025Y111395D01*
X52075Y111287D01*
X52128Y111182D01*
X52185Y111078D01*
X52245Y110976D01*
X52308Y110876D01*
X52375Y110778D01*
X52444Y110682D01*
X52517Y110589D01*
X52593Y110498D01*
X52671Y110409D01*
X52753Y110323D01*
X52837Y110240D01*
X52923Y110159D01*
X53013Y110082D01*
X53104Y110007D01*
X53198Y109935D01*
X53295Y109866D01*
X53393Y109801D01*
X53494Y109738D01*
X53597Y109679D01*
X53701Y109623D01*
X53807Y109571D01*
X53915Y109522D01*
X54024Y109477D01*
X54135Y109435D01*
X54247Y109397D01*
X56786Y114794D02*
X56711Y114870D01*
X56632Y114945D01*
X56551Y115016D01*
X56467Y115085D01*
X56381Y115150D01*
X56293Y115212D01*
X56203Y115272D01*
X56111Y115328D01*
X56016Y115381D01*
X55920Y115430D01*
X55822Y115476D01*
X55723Y115519D01*
X55622Y115558D01*
X55520Y115593D01*
X55417Y115625D01*
X55313Y115653D01*
X55208Y115678D01*
X55101Y115699D01*
X54995Y115716D01*
X54888Y115729D01*
X54780Y115738D01*
X54672Y115744D01*
X54564Y115746D01*
X56787Y114794D02*
X63137Y109396D01*
X63137Y115746D01*
M02*
